<svg width="112" height="215" viewBox="1 1 113 216" xmlns="http://www.w3.org/2000/svg"><style> line {stroke: black; stroke_width: 1px;} polygon {fill: black;} </style><g id="unlabeled">
<g id="atom_S_1">
<line x1="55.0" y1="176.25" x2="57.0" y2="179.5" />
<line x1="55.0" y1="169.75" x2="57.0" y2="166.5" />
<g id="atom_S_1_text">
<text x="53" y="173" text-anchor="middle" font-family="verdana" font-size="8"><tspan y="173" dy="0.35em">S</tspan></text>
</g>
</g>
<g id="atom_C_0">
<line x1="61.0" y1="186.0" x2="57.0" y2="179.5" />
</g>
<g id="atom_C_2">
<line x1="61.0" y1="160.0" x2="57.0" y2="166.5" />
<line x1="61.0" y1="160.0" x2="57.0" y2="153.5" />
</g>
<g id="atom_C_3">
<line x1="53.0" y1="147.0" x2="57.0" y2="153.5" />
<line x1="53.0" y1="147.0" x2="57.0" y2="140.5" />
</g>
<g id="atom_C_4">
<line x1="61.0" y1="134.0" x2="57.0" y2="140.5" />
<polygon points="61.0,134.0 68.5,133.25 68.5,134.75" />
<line x1="61.0" y1="134.0" x2="57.0" y2="127.5" />
</g>
<g id="atom_N_6">
<polygon points="72.25,132.5 72.25,135.5 68.5,134.75 68.5,133.25" />
<g id="atom_N_6_text">
<text x="76" y="134" text-anchor="middle" font-family="verdana" font-size="8"><tspan y="134" dy="0.35em">N</tspan></text>
<text x="82.0" y="134.0" text-anchor="middle" font-family="verdana" font-size="8"><tspan y="134.0" dy="0.35em">H</tspan></text>
<text x="87.0" y="137.0" text-anchor="middle" font-family="verdana" font-size="6"><tspan y="137.0" dy="0.35em">2</tspan></text>
</g>
</g>
<g id="atom_C_7">
<line x1="53.0" y1="121.0" x2="57.0" y2="127.5" />
<line x1="53.83076923076923" y1="119.65" x2="45.5" y2="119.65" />
<line x1="53.83076923076923" y1="122.35" x2="45.5" y2="122.35" />
<line x1="53.0" y1="121.0" x2="57.0" y2="114.5" />
</g>
<g id="atom_O_8">
<line x1="41.75" y1="119.65" x2="45.5" y2="119.65" />
<line x1="41.75" y1="122.35" x2="45.5" y2="122.35" />
<g id="atom_O_8_text">
<text x="38" y="121" text-anchor="middle" font-family="verdana" font-size="8"><tspan y="121" dy="0.35em">O</tspan></text>
</g>
</g>
<g id="atom_N_9">
<line x1="59.0" y1="111.25" x2="57.0" y2="114.5" />
<line x1="59.0" y1="104.75" x2="57.0" y2="101.5" />
<g id="atom_N_9_text">
<text x="61" y="108" text-anchor="middle" font-family="verdana" font-size="8"><tspan y="108" dy="0.35em">N</tspan></text>
<text x="67.0" y="108.0" text-anchor="middle" font-family="verdana" font-size="8"><tspan y="108.0" dy="0.35em">H</tspan></text>
</g>
</g>
<g id="atom_C_10">
<line x1="53.0" y1="95.0" x2="57.0" y2="101.5" />
<polygon points="53.0,95.0 45.5,94.25 45.5,95.75" />
<line x1="53.0" y1="95.0" x2="57.0" y2="88.5" />
</g>
<g id="atom_C_12">
<polygon points="38.0,93.5 38.0,96.5 45.5,95.75 45.5,94.25" />
<line x1="38.0" y1="95.0" x2="34.5" y2="88.5" />
</g>
<g id="atom_Se_13">
<line x1="32.75" y1="85.25" x2="34.5" y2="88.5" />
<g id="atom_Se_13_text">
<text x="31" y="82" text-anchor="middle" font-family="verdana" font-size="8"><tspan y="82" dy="0.35em">Se</tspan></text>
</g>
</g>
<g id="atom_C_14">
<line x1="61.0" y1="82.0" x2="57.0" y2="88.5" />
<line x1="60.16923076923077" y1="80.65" x2="68.5" y2="80.65" />
<line x1="60.16923076923077" y1="83.35" x2="68.5" y2="83.35" />
<line x1="61.0" y1="82.0" x2="57.0" y2="75.5" />
</g>
<g id="atom_O_15">
<line x1="72.25" y1="80.65" x2="68.5" y2="80.65" />
<line x1="72.25" y1="83.35" x2="68.5" y2="83.35" />
<g id="atom_O_15_text">
<text x="76" y="82" text-anchor="middle" font-family="verdana" font-size="8"><tspan y="82" dy="0.35em">O</tspan></text>
</g>
</g>
<g id="atom_N_16">
<line x1="55.0" y1="72.25" x2="57.0" y2="75.5" />
<line x1="54.75" y1="65.75" x2="56.5" y2="62.5" />
<g id="atom_N_16_text">
<text x="53" y="69" text-anchor="middle" font-family="verdana" font-size="8"><tspan y="69" dy="0.35em">N</tspan></text>
<text x="47.0" y="69.0" text-anchor="middle" font-family="verdana" font-size="8"><tspan y="69.0" dy="0.35em">H</tspan></text>
</g>
</g>
<g id="atom_C_17">
<line x1="60.0" y1="56.0" x2="56.5" y2="62.5" />
<g id="chiral-bond-back" stroke="black" stroke-width="1">
  <line x1="60.0" y1="56.0" x2="60.0" y2="56.0" />
  <line x1="63.2" y1="55.7" x2="63.2" y2="56.3" />
  <line x1="66.4" y1="55.4" x2="66.4" y2="56.6" />
</g>
<line x1="60.0" y1="56.0" x2="56.5" y2="49.5" />
</g>
<g id="atom_C_19">
<g id="chiral-bond-back" stroke="black" stroke-width="1">
  <line x1="76.0" y1="54.5" x2="76.0" y2="57.5" />
  <line x1="72.8" y1="54.8" x2="72.8" y2="57.2" />
  <line x1="69.6" y1="55.1" x2="69.6" y2="56.9" />
</g>
<line x1="76.0" y1="56.0" x2="79.5" y2="49.5" />
</g>
<g id="atom_S_20">
<line x1="81.25" y1="46.25" x2="79.5" y2="49.5" />
<g id="atom_S_20_text">
<text x="83" y="43" text-anchor="middle" font-family="verdana" font-size="8"><tspan y="43" dy="0.35em">S</tspan></text>
<text x="89.0" y="43.0" text-anchor="middle" font-family="verdana" font-size="8"><tspan y="43.0" dy="0.35em">H</tspan></text>
</g>
</g>
<g id="atom_C_21">
<line x1="53.0" y1="43.0" x2="56.5" y2="49.5" />
<line x1="53.75019197543029" y1="44.39321366865625" x2="57.66610151621288" y2="37.68022588445751" />
<line x1="51.4371000511869" y1="43.0" x2="55.33389848378712" y2="36.31977411554249" />
<line x1="53.0" y1="43.0" x2="45.5" y2="43.0" />
</g>
<g id="atom_O_22">
<line x1="59.41610151621288" y1="34.68022588445751" x2="57.66610151621288" y2="37.68022588445751" />
<line x1="57.08389848378712" y1="33.31977411554249" x2="55.33389848378712" y2="36.31977411554249" />
<g id="atom_O_22_text">
<text x="60" y="31" text-anchor="middle" font-family="verdana" font-size="8"><tspan y="31" dy="0.35em">O</tspan></text>
</g>
</g>
<g id="atom_O_23">
<line x1="41.75" y1="43.0" x2="45.5" y2="43.0" />
<g id="atom_O_23_text">
<text x="38" y="43" text-anchor="middle" font-family="verdana" font-size="8"><tspan y="43" dy="0.35em">O</tspan></text>
<text x="32.0" y="43.0" text-anchor="middle" font-family="verdana" font-size="8"><tspan y="43.0" dy="0.35em">H</tspan></text>
</g>
</g>
</g>
</svg>