<?xml version="1.0" encoding="utf-8" standalone="no"?>
<!DOCTYPE svg PUBLIC "-//W3C//DTD SVG 1.1//EN"
  "http://www.w3.org/Graphics/SVG/1.1/DTD/svg11.dtd">
<svg xmlns:xlink="http://www.w3.org/1999/xlink" width="151.2pt" height="348.286082pt" viewBox="0 0 151.2 348.286082" xmlns="http://www.w3.org/2000/svg" version="1.1">
 <metadata>
  <rdf:RDF xmlns:dc="http://purl.org/dc/elements/1.1/" xmlns:cc="http://creativecommons.org/ns#" xmlns:rdf="http://www.w3.org/1999/02/22-rdf-syntax-ns#">
   <cc:Work>
    <dc:type rdf:resource="http://purl.org/dc/dcmitype/StillImage"/>
    <dc:date>2023-01-05T23:27:00.147544</dc:date>
    <dc:format>image/svg+xml</dc:format>
    <dc:creator>
     <cc:Agent>
      <dc:title>Matplotlib v3.6.2, https://matplotlib.org/</dc:title>
     </cc:Agent>
    </dc:creator>
   </cc:Work>
  </rdf:RDF>
 </metadata>
 <defs>
  <style type="text/css">*{stroke-linejoin: round; stroke-linecap: butt}</style>
 </defs>
 <g id="figure_1">
  <g id="patch_1">
   <path d="M 0 348.286082 
L 151.2 348.286082 
L 151.2 0 
L 0 0 
z
" style="fill: transparent"/>
  </g>
  <g id="axes_1">
   <g id="patch_2">
    <path d="M 75.6 230.261487 
L 86.4 231.341487 
L 86.4 229.181487 
z
" clip-path="url(#p6598093bad)" style="fill: #231e80; stroke: #231e80; stroke-linejoin: miter"/>
   </g>
   <g id="patch_3">
    <path d="M 91.8 232.421487 
L 91.8 228.101487 
L 86.4 229.181487 
L 86.4 231.341487 
z
" clip-path="url(#p6598093bad)" style="fill: #231e80; stroke: #231e80; stroke-linejoin: miter"/>
   </g>
   <g id="line2d_1">
    <path d="M 67.5 291.056471 
L 70.2 295.733008 
" clip-path="url(#p6598093bad)" style="fill: none; stroke: #231e80; stroke-width: 2; stroke-linecap: square"/>
   </g>
   <g id="line2d_2">
    <path d="M 75.6 305.086082 
L 70.2 295.733008 
" clip-path="url(#p6598093bad)" style="fill: none; stroke: #231e80; stroke-width: 2; stroke-linecap: square"/>
   </g>
   <g id="line2d_3">
    <path d="M 67.5 281.703396 
L 70.2 277.026859 
" clip-path="url(#p6598093bad)" style="fill: none; stroke: #231e80; stroke-width: 2; stroke-linecap: square"/>
   </g>
   <g id="line2d_4">
    <path d="M 75.6 267.673785 
L 70.2 277.026859 
" clip-path="url(#p6598093bad)" style="fill: none; stroke: #231e80; stroke-width: 2; stroke-linecap: square"/>
   </g>
   <g id="line2d_5">
    <path d="M 64.8 248.967636 
L 70.2 258.32071 
" clip-path="url(#p6598093bad)" style="fill: none; stroke: #231e80; stroke-width: 2; stroke-linecap: square"/>
   </g>
   <g id="line2d_6">
    <path d="M 75.6 267.673785 
L 70.2 258.32071 
" clip-path="url(#p6598093bad)" style="fill: none; stroke: #231e80; stroke-width: 2; stroke-linecap: square"/>
   </g>
   <g id="line2d_7">
    <path d="M 64.8 248.967636 
L 70.2 239.614562 
" clip-path="url(#p6598093bad)" style="fill: none; stroke: #231e80; stroke-width: 2; stroke-linecap: square"/>
   </g>
   <g id="line2d_8">
    <path d="M 75.6 230.261487 
L 70.2 239.614562 
" clip-path="url(#p6598093bad)" style="fill: none; stroke: #231e80; stroke-width: 2; stroke-linecap: square"/>
   </g>
   <g id="line2d_9">
    <path d="M 64.8 211.555338 
L 70.2 220.908413 
" clip-path="url(#p6598093bad)" style="fill: none; stroke: #231e80; stroke-width: 2; stroke-linecap: square"/>
   </g>
   <g id="line2d_10">
    <path d="M 75.6 230.261487 
L 70.2 220.908413 
" clip-path="url(#p6598093bad)" style="fill: none; stroke: #231e80; stroke-width: 2; stroke-linecap: square"/>
   </g>
   <g id="line2d_11">
    <path d="M 48.6 213.499338 
L 54 213.499338 
" clip-path="url(#p6598093bad)" style="fill: none; stroke: #231e80; stroke-width: 2; stroke-linecap: square"/>
   </g>
   <g id="line2d_12">
    <path d="M 65.922369 213.499338 
L 54 213.499338 
" clip-path="url(#p6598093bad)" style="fill: none; stroke: #231e80; stroke-width: 2; stroke-linecap: square"/>
   </g>
   <g id="line2d_13">
    <path d="M 48.6 209.611338 
L 54 209.611338 
" clip-path="url(#p6598093bad)" style="fill: none; stroke: #231e80; stroke-width: 2; stroke-linecap: square"/>
   </g>
   <g id="line2d_14">
    <path d="M 65.922369 209.611338 
L 54 209.611338 
" clip-path="url(#p6598093bad)" style="fill: none; stroke: #231e80; stroke-width: 2; stroke-linecap: square"/>
   </g>
   <g id="line2d_15">
    <path d="M 64.8 211.555338 
L 70.2 202.202264 
" clip-path="url(#p6598093bad)" style="fill: none; stroke: #231e80; stroke-width: 2; stroke-linecap: square"/>
   </g>
   <g id="line2d_16">
    <path d="M 72.9 197.525727 
L 70.2 202.202264 
" clip-path="url(#p6598093bad)" style="fill: none; stroke: #231e80; stroke-width: 2; stroke-linecap: square"/>
   </g>
   <g id="line2d_17">
    <path d="M 67.5 178.819578 
L 70.2 183.496115 
" clip-path="url(#p6598093bad)" style="fill: none; stroke: #329a0d; stroke-width: 2; stroke-linecap: square"/>
   </g>
   <g id="line2d_18">
    <path d="M 72.9 188.172653 
L 70.2 183.496115 
" clip-path="url(#p6598093bad)" style="fill: none; stroke: #231e80; stroke-width: 2; stroke-linecap: square"/>
   </g>
   <g id="line2d_19">
    <path d="M 67.5 169.466504 
L 70.2 164.789967 
" clip-path="url(#p6598093bad)" style="fill: none; stroke: #329a0d; stroke-width: 2; stroke-linecap: square"/>
   </g>
   <g id="line2d_20">
    <path d="M 75.6 155.436892 
L 70.2 164.789967 
" clip-path="url(#p6598093bad)" style="fill: none; stroke: #329a0d; stroke-width: 2; stroke-linecap: square"/>
   </g>
   <g id="line2d_21">
    <path d="M 75.6 155.436892 
L 75.6 155.436892 
" clip-path="url(#p6598093bad)" style="fill: none; stroke: #329a0d; stroke-width: 2; stroke-linecap: square"/>
   </g>
   <g id="line2d_22">
    <path d="M 79.92 155.868892 
L 79.92 155.004892 
" clip-path="url(#p6598093bad)" style="fill: none; stroke: #329a0d; stroke-width: 2; stroke-linecap: square"/>
   </g>
   <g id="line2d_23">
    <path d="M 84.24 156.300892 
L 84.24 154.572892 
" clip-path="url(#p6598093bad)" style="fill: none; stroke: #329a0d; stroke-width: 2; stroke-linecap: square"/>
   </g>
   <g id="line2d_24">
    <path d="M 97.2 157.596892 
L 97.2 153.276892 
" clip-path="url(#p6598093bad)" style="fill: none; stroke: #329a0d; stroke-width: 2; stroke-linecap: square"/>
   </g>
   <g id="line2d_25">
    <path d="M 92.88 157.164892 
L 92.88 153.708892 
" clip-path="url(#p6598093bad)" style="fill: none; stroke: #329a0d; stroke-width: 2; stroke-linecap: square"/>
   </g>
   <g id="line2d_26">
    <path d="M 88.56 156.732892 
L 88.56 154.140892 
" clip-path="url(#p6598093bad)" style="fill: none; stroke: #329a0d; stroke-width: 2; stroke-linecap: square"/>
   </g>
   <g id="line2d_27">
    <path d="M 97.2 155.436892 
L 102.6 146.083818 
" clip-path="url(#p6598093bad)" style="fill: none; stroke: #329a0d; stroke-width: 2; stroke-linecap: square"/>
   </g>
   <g id="line2d_28">
    <path d="M 105.3 141.407281 
L 102.6 146.083818 
" clip-path="url(#p6598093bad)" style="fill: none; stroke: #329a0d; stroke-width: 2; stroke-linecap: square"/>
   </g>
   <g id="line2d_29">
    <path d="M 64.8 136.730744 
L 70.2 146.083818 
" clip-path="url(#p6598093bad)" style="fill: none; stroke: #329a0d; stroke-width: 2; stroke-linecap: square"/>
   </g>
   <g id="line2d_30">
    <path d="M 75.6 155.436892 
L 70.2 146.083818 
" clip-path="url(#p6598093bad)" style="fill: none; stroke: #329a0d; stroke-width: 2; stroke-linecap: square"/>
   </g>
   <g id="line2d_31">
    <path d="M 48.6 138.674744 
L 54 138.674744 
" clip-path="url(#p6598093bad)" style="fill: none; stroke: #329a0d; stroke-width: 2; stroke-linecap: square"/>
   </g>
   <g id="line2d_32">
    <path d="M 65.922369 138.674744 
L 54 138.674744 
" clip-path="url(#p6598093bad)" style="fill: none; stroke: #329a0d; stroke-width: 2; stroke-linecap: square"/>
   </g>
   <g id="line2d_33">
    <path d="M 48.6 134.786744 
L 54 134.786744 
" clip-path="url(#p6598093bad)" style="fill: none; stroke: #329a0d; stroke-width: 2; stroke-linecap: square"/>
   </g>
   <g id="line2d_34">
    <path d="M 65.922369 134.786744 
L 54 134.786744 
" clip-path="url(#p6598093bad)" style="fill: none; stroke: #329a0d; stroke-width: 2; stroke-linecap: square"/>
   </g>
   <g id="line2d_35">
    <path d="M 64.8 136.730744 
L 70.2 127.377669 
" clip-path="url(#p6598093bad)" style="fill: none; stroke: #329a0d; stroke-width: 2; stroke-linecap: square"/>
   </g>
   <g id="line2d_36">
    <path d="M 72.9 122.701132 
L 70.2 127.377669 
" clip-path="url(#p6598093bad)" style="fill: none; stroke: #329a0d; stroke-width: 2; stroke-linecap: square"/>
   </g>
   <g id="line2d_37">
    <path d="M 67.5 103.994983 
L 70.2 108.671521 
" clip-path="url(#p6598093bad)" style="fill: none; stroke: #06fbaf; stroke-width: 2; stroke-linecap: square"/>
   </g>
   <g id="line2d_38">
    <path d="M 72.9 113.348058 
L 70.2 108.671521 
" clip-path="url(#p6598093bad)" style="fill: none; stroke: #329a0d; stroke-width: 2; stroke-linecap: square"/>
   </g>
   <g id="line2d_39">
    <path d="M 67.5 94.641909 
L 70.2 89.965372 
" clip-path="url(#p6598093bad)" style="fill: none; stroke: #06fbaf; stroke-width: 2; stroke-linecap: square"/>
   </g>
   <g id="line2d_40">
    <path d="M 75.6 80.612297 
L 70.2 89.965372 
" clip-path="url(#p6598093bad)" style="fill: none; stroke: #06fbaf; stroke-width: 2; stroke-linecap: square"/>
   </g>
   <g id="line2d_41">
    <path d="M 75.6 80.612297 
L 75.6 80.612297 
" clip-path="url(#p6598093bad)" style="fill: none; stroke: #06fbaf; stroke-width: 2; stroke-linecap: square"/>
   </g>
   <g id="line2d_42">
    <path d="M 79.92 81.044297 
L 79.92 80.180297 
" clip-path="url(#p6598093bad)" style="fill: none; stroke: #06fbaf; stroke-width: 2; stroke-linecap: square"/>
   </g>
   <g id="line2d_43">
    <path d="M 84.24 81.476297 
L 84.24 79.748297 
" clip-path="url(#p6598093bad)" style="fill: none; stroke: #06fbaf; stroke-width: 2; stroke-linecap: square"/>
   </g>
   <g id="line2d_44">
    <path d="M 97.2 82.772297 
L 97.2 78.452297 
" clip-path="url(#p6598093bad)" style="fill: none; stroke: #06fbaf; stroke-width: 2; stroke-linecap: square"/>
   </g>
   <g id="line2d_45">
    <path d="M 92.88 82.340297 
L 92.88 78.884297 
" clip-path="url(#p6598093bad)" style="fill: none; stroke: #06fbaf; stroke-width: 2; stroke-linecap: square"/>
   </g>
   <g id="line2d_46">
    <path d="M 88.56 81.908297 
L 88.56 79.316297 
" clip-path="url(#p6598093bad)" style="fill: none; stroke: #06fbaf; stroke-width: 2; stroke-linecap: square"/>
   </g>
   <g id="line2d_47">
    <path d="M 97.2 80.612297 
L 102.6 71.259223 
" clip-path="url(#p6598093bad)" style="fill: none; stroke: #06fbaf; stroke-width: 2; stroke-linecap: square"/>
   </g>
   <g id="line2d_48">
    <path d="M 105.3 66.582686 
L 102.6 71.259223 
" clip-path="url(#p6598093bad)" style="fill: none; stroke: #06fbaf; stroke-width: 2; stroke-linecap: square"/>
   </g>
   <g id="line2d_49">
    <path d="M 64.8 61.906149 
L 70.2 71.259223 
" clip-path="url(#p6598093bad)" style="fill: none; stroke: #06fbaf; stroke-width: 2; stroke-linecap: square"/>
   </g>
   <g id="line2d_50">
    <path d="M 75.6 80.612297 
L 70.2 71.259223 
" clip-path="url(#p6598093bad)" style="fill: none; stroke: #06fbaf; stroke-width: 2; stroke-linecap: square"/>
   </g>
   <g id="line2d_51">
    <path d="M 65.922369 63.850149 
L 71.883553 53.525074 
" clip-path="url(#p6598093bad)" style="fill: none; stroke: #06fbaf; stroke-width: 2; stroke-linecap: square"/>
   </g>
   <g id="line2d_52">
    <path d="M 74.583553 48.848537 
L 71.883553 53.525074 
" clip-path="url(#p6598093bad)" style="fill: none; stroke: #06fbaf; stroke-width: 2; stroke-linecap: square"/>
   </g>
   <g id="line2d_53">
    <path d="M 62.555262 61.906149 
L 68.516447 51.581074 
" clip-path="url(#p6598093bad)" style="fill: none; stroke: #06fbaf; stroke-width: 2; stroke-linecap: square"/>
   </g>
   <g id="line2d_54">
    <path d="M 71.216447 46.904537 
L 68.516447 51.581074 
" clip-path="url(#p6598093bad)" style="fill: none; stroke: #06fbaf; stroke-width: 2; stroke-linecap: square"/>
   </g>
   <g id="line2d_55">
    <path d="M 48.6 61.906149 
L 54 61.906149 
" clip-path="url(#p6598093bad)" style="fill: none; stroke: #06fbaf; stroke-width: 2; stroke-linecap: square"/>
   </g>
   <g id="line2d_56">
    <path d="M 64.8 61.906149 
L 54 61.906149 
" clip-path="url(#p6598093bad)" style="fill: none; stroke: #06fbaf; stroke-width: 2; stroke-linecap: square"/>
   </g>
   <g id="text_1">
    <!-- S -->
    <g style="fill: #231e80" transform="translate(61.625781 289.139308) scale(0.1 -0.1)">
     <defs>
      <path id="DejaVuSans-53" d="M 3425 4513 
L 3425 3897 
Q 3066 4069 2747 4153 
Q 2428 4238 2131 4238 
Q 1616 4238 1336 4038 
Q 1056 3838 1056 3469 
Q 1056 3159 1242 3001 
Q 1428 2844 1947 2747 
L 2328 2669 
Q 3034 2534 3370 2195 
Q 3706 1856 3706 1288 
Q 3706 609 3251 259 
Q 2797 -91 1919 -91 
Q 1588 -91 1214 -16 
Q 841 59 441 206 
L 441 856 
Q 825 641 1194 531 
Q 1563 422 1919 422 
Q 2459 422 2753 634 
Q 3047 847 3047 1241 
Q 3047 1584 2836 1778 
Q 2625 1972 2144 2069 
L 1759 2144 
Q 1053 2284 737 2584 
Q 422 2884 422 3419 
Q 422 4038 858 4394 
Q 1294 4750 2059 4750 
Q 2388 4750 2728 4690 
Q 3069 4631 3425 4513 
z
" transform="scale(0.015625)"/>
     </defs>
     <use xlink:href="#DejaVuSans-53"/>
    </g>
   </g>
   <g id="text_2">
    <!-- $NH_2$ -->
    <g style="fill: #231e80" transform="translate(92.88 233.020862) scale(0.1 -0.1)">
     <defs>
      <path id="DejaVuSans-4e" d="M 628 4666 
L 1478 4666 
L 3547 763 
L 3547 4666 
L 4159 4666 
L 4159 0 
L 3309 0 
L 1241 3903 
L 1241 0 
L 628 0 
L 628 4666 
z
" transform="scale(0.015625)"/>
      <path id="DejaVuSans-48" d="M 628 4666 
L 1259 4666 
L 1259 2753 
L 3553 2753 
L 3553 4666 
L 4184 4666 
L 4184 0 
L 3553 0 
L 3553 2222 
L 1259 2222 
L 1259 0 
L 628 0 
L 628 4666 
z
" transform="scale(0.015625)"/>
      <path id="DejaVuSans-32" d="M 1228 531 
L 3431 531 
L 3431 0 
L 469 0 
L 469 531 
Q 828 903 1448 1529 
Q 2069 2156 2228 2338 
Q 2531 2678 2651 2914 
Q 2772 3150 2772 3378 
Q 2772 3750 2511 3984 
Q 2250 4219 1831 4219 
Q 1534 4219 1204 4116 
Q 875 4013 500 3803 
L 500 4441 
Q 881 4594 1212 4672 
Q 1544 4750 1819 4750 
Q 2544 4750 2975 4387 
Q 3406 4025 3406 3419 
Q 3406 3131 3298 2873 
Q 3191 2616 2906 2266 
Q 2828 2175 2409 1742 
Q 1991 1309 1228 531 
z
" transform="scale(0.015625)"/>
     </defs>
     <use xlink:href="#DejaVuSans-4e" transform="translate(0 0.09375)"/>
     <use xlink:href="#DejaVuSans-48" transform="translate(74.804688 0.09375)"/>
     <use xlink:href="#DejaVuSans-32" transform="translate(150.957031 -16.3125) scale(0.7)"/>
    </g>
   </g>
   <g id="text_3">
    <!-- O -->
    <g style="fill: #231e80" transform="translate(39.264063 214.314713) scale(0.1 -0.1)">
     <defs>
      <path id="DejaVuSans-4f" d="M 2522 4238 
Q 1834 4238 1429 3725 
Q 1025 3213 1025 2328 
Q 1025 1447 1429 934 
Q 1834 422 2522 422 
Q 3209 422 3611 934 
Q 4013 1447 4013 2328 
Q 4013 3213 3611 3725 
Q 3209 4238 2522 4238 
z
M 2522 4750 
Q 3503 4750 4090 4092 
Q 4678 3434 4678 2328 
Q 4678 1225 4090 567 
Q 3503 -91 2522 -91 
Q 1538 -91 948 565 
Q 359 1222 359 2328 
Q 359 3434 948 4092 
Q 1538 4750 2522 4750 
z
" transform="scale(0.015625)"/>
     </defs>
     <use xlink:href="#DejaVuSans-4f"/>
    </g>
   </g>
   <g id="text_4">
    <!-- O -->
    <g style="fill: #231e80" transform="translate(71.664063 195.608565) scale(0.1 -0.1)">
     <use xlink:href="#DejaVuSans-4f"/>
    </g>
   </g>
   <g id="text_5">
    <!-- HN -->
    <g style="fill: #329a0d" transform="translate(54.118438 176.902416) scale(0.1 -0.1)">
     <use xlink:href="#DejaVuSans-48"/>
     <use xlink:href="#DejaVuSans-4e" x="75.195312"/>
    </g>
   </g>
   <g id="text_6">
    <!-- Se -->
    <g style="fill: #329a0d" transform="translate(101.749219 139.490119) scale(0.1 -0.1)">
     <defs>
      <path id="DejaVuSans-65" d="M 3597 1894 
L 3597 1613 
L 953 1613 
Q 991 1019 1311 708 
Q 1631 397 2203 397 
Q 2534 397 2845 478 
Q 3156 559 3463 722 
L 3463 178 
Q 3153 47 2828 -22 
Q 2503 -91 2169 -91 
Q 1331 -91 842 396 
Q 353 884 353 1716 
Q 353 2575 817 3079 
Q 1281 3584 2069 3584 
Q 2775 3584 3186 3129 
Q 3597 2675 3597 1894 
z
M 3022 2063 
Q 3016 2534 2758 2815 
Q 2500 3097 2075 3097 
Q 1594 3097 1305 2825 
Q 1016 2553 972 2059 
L 3022 2063 
z
" transform="scale(0.015625)"/>
     </defs>
     <use xlink:href="#DejaVuSans-53"/>
     <use xlink:href="#DejaVuSans-65" x="63.476562"/>
    </g>
   </g>
   <g id="text_7">
    <!-- O -->
    <g style="fill: #329a0d" transform="translate(39.264063 139.490119) scale(0.1 -0.1)">
     <use xlink:href="#DejaVuSans-4f"/>
    </g>
   </g>
   <g id="text_8">
    <!-- O -->
    <g style="fill: #329a0d" transform="translate(71.664063 120.78397) scale(0.1 -0.1)">
     <use xlink:href="#DejaVuSans-4f"/>
    </g>
   </g>
   <g id="text_9">
    <!-- HN -->
    <g style="fill: #06fbaf" transform="translate(54.118438 102.077821) scale(0.1 -0.1)">
     <use xlink:href="#DejaVuSans-48"/>
     <use xlink:href="#DejaVuSans-4e" x="75.195312"/>
    </g>
   </g>
   <g id="text_10">
    <!-- SH -->
    <g style="fill: #06fbaf" transform="translate(103.68 64.665524) scale(0.1 -0.1)">
     <use xlink:href="#DejaVuSans-53"/>
     <use xlink:href="#DejaVuSans-48" x="63.476562"/>
    </g>
   </g>
   <g id="text_11">
    <!-- O -->
    <g style="fill: #06fbaf" transform="translate(71.664062 45.959375) scale(0.1 -0.1)">
     <use xlink:href="#DejaVuSans-4f"/>
    </g>
   </g>
   <g id="text_12">
    <!-- HO -->
    <g style="fill: #06fbaf" transform="translate(32.127812 64.665524) scale(0.1 -0.1)">
     <use xlink:href="#DejaVuSans-48"/>
     <use xlink:href="#DejaVuSans-4f" x="75.195312"/>
    </g>
   </g>
  </g>
 </g>
 <defs>
  <clipPath id="p6598093bad">
   <rect x="0" y="0" width="151.2" height="348.286082"/>
  </clipPath>
 </defs>
</svg>
