<svg width="1020" height="605" viewBox="1 1 1021 606" xmlns="http://www.w3.org/2000/svg"><style> line {stroke: black; stroke_width: 1px;} polygon {fill: black;} </style><g id="unlabeled">
<g id="atom_C_0">
<line x1="811.0" y1="69.0" x2="814.5" y2="75.5" />
</g>
<g id="atom_C_1">
<line x1="818.0" y1="82.0" x2="814.5" y2="75.5" />
<line x1="818.0" y1="82.0" x2="825.5" y2="82.0" />
</g>
<g id="atom_C_2">
<line x1="833.0" y1="82.0" x2="825.5" y2="82.0" />
<g id="chiral-bond-back" stroke="black" stroke-width="1">
  <line x1="833.0" y1="82.0" x2="833.0" y2="82.0" />
  <line x1="834.3445025049887" y1="79.2427707723007" x2="834.8554974950114" y2="79.55722922769931" />
  <line x1="835.6890050099773" y1="76.48554154460139" x2="836.7109949900228" y2="77.1144584553986" />
</g>
<line x1="833.0" y1="82.0" x2="837.0" y2="88.5" />
</g>
<g id="atom_C_4">
<g id="chiral-bond-back" stroke="black" stroke-width="1">
  <line x1="839.7225125249432" y1="68.2138538615035" x2="842.2774874750568" y2="69.7861461384965" />
  <line x1="838.3780100199546" y1="70.97108308920279" x2="840.4219899800454" y2="72.2289169107972" />
  <line x1="837.0335075149659" y1="73.7283123169021" x2="838.566492485034" y2="74.6716876830979" />
</g>
</g>
<g id="atom_C_5">
<line x1="841.0" y1="95.0" x2="837.0" y2="88.5" />
<g id="chiral-bond-back" stroke="black" stroke-width="1">
  <line x1="841.0" y1="95.0" x2="841.0" y2="95.0" />
  <line x1="844.0" y1="94.7" x2="844.0" y2="95.3" />
  <line x1="847.0" y1="94.4" x2="847.0" y2="95.6" />
</g>
<line x1="841.0" y1="95.0" x2="837.0" y2="101.5" />
</g>
<g id="atom_N_7">
<g id="chiral-bond-back" stroke="black" stroke-width="1">
  <line x1="850.0" y1="94.1" x2="850.0" y2="95.9" />
</g>
<line x1="857.75" y1="91.75" x2="859.5" y2="88.5" />
<g id="atom_N_7_text">
<text x="856" y="95" text-anchor="middle" font-family="verdana" font-size="8"><tspan y="95" dy="0.35em">N</tspan></text>
<text x="856.0" y="102.0" text-anchor="middle" font-family="verdana" font-size="8"><tspan y="102.0" dy="0.35em">H</tspan></text>
</g>
</g>
<g id="atom_C_8">
<line x1="863.0" y1="82.0" x2="859.5" y2="88.5" />
<line x1="864.5332700870243" y1="82.0" x2="860.688635984895" y2="74.85996523890273" />
<line x1="862.2333649564878" y1="83.42375079509392" x2="858.311364015105" y2="76.14003476109727" />
<line x1="863.0" y1="82.0" x2="870.5" y2="82.0" />
</g>
<g id="atom_O_9">
<line x1="858.938635984895" y1="71.60996523890273" x2="860.688635984895" y2="74.85996523890273" />
<line x1="856.561364015105" y1="72.89003476109727" x2="858.311364015105" y2="76.14003476109727" />
<g id="atom_O_9_text">
<text x="856" y="69" text-anchor="middle" font-family="verdana" font-size="8"><tspan y="69" dy="0.35em">O</tspan></text>
</g>
</g>
<g id="atom_C_10">
<line x1="878.0" y1="82.0" x2="870.5" y2="82.0" />
<polygon points="878.0,82.0 882.6387437375284,88.10692693075175 881.3612562624716,88.89307306924825" />
<line x1="878.0" y1="82.0" x2="882.0" y2="75.5" />
</g>
<g id="atom_C_12">
<polygon points="887.2774874750568,94.2138538615035 884.7225125249432,95.7861461384965 881.3612562624716,88.89307306924825 882.6387437375284,88.10692693075175" />
<line x1="886.0" y1="95.0" x2="882.0" y2="101.5" />
</g>
<g id="atom_O_13">
<line x1="880.0" y1="104.75" x2="882.0" y2="101.5" />
<g id="atom_O_13_text">
<text x="878" y="108" text-anchor="middle" font-family="verdana" font-size="8"><tspan y="108" dy="0.35em">O</tspan></text>
<text x="872.0" y="108.0" text-anchor="middle" font-family="verdana" font-size="8"><tspan y="108.0" dy="0.35em">H</tspan></text>
</g>
</g>
<g id="atom_N_14">
<line x1="884.0" y1="72.25" x2="882.0" y2="75.5" />
<line x1="889.75" y1="69.0" x2="893.5" y2="69.0" />
<g id="atom_N_14_text">
<text x="886" y="69" text-anchor="middle" font-family="verdana" font-size="8"><tspan y="69" dy="0.35em">N</tspan></text>
<text x="886.0" y="62.0" text-anchor="middle" font-family="verdana" font-size="8"><tspan y="62.0" dy="0.35em">H</tspan></text>
</g>
</g>
<g id="atom_C_15">
<line x1="901.0" y1="69.0" x2="893.5" y2="69.0" />
<line x1="901.7666350435122" y1="67.57624920490608" x2="905.688635984895" y2="74.85996523890273" />
<line x1="899.4667299129757" y1="69.0" x2="903.311364015105" y2="76.14003476109727" />
<line x1="901.0" y1="69.0" x2="904.5" y2="62.5" />
</g>
<g id="atom_O_16">
<line x1="907.438635984895" y1="78.10996523890273" x2="905.688635984895" y2="74.85996523890273" />
<line x1="905.061364015105" y1="79.39003476109727" x2="903.311364015105" y2="76.14003476109727" />
<g id="atom_O_16_text">
<text x="908" y="82" text-anchor="middle" font-family="verdana" font-size="8"><tspan y="82" dy="0.35em">O</tspan></text>
</g>
</g>
<g id="atom_C_17">
<line x1="908.0" y1="56.0" x2="904.5" y2="62.5" />
<g id="chiral-bond-back" stroke="black" stroke-width="1">
  <line x1="908.0" y1="56.0" x2="908.0" y2="56.0" />
  <line x1="906.3358586700234" y1="53.5422299469105" x2="906.8641413299766" y2="53.257770053089494" />
  <line x1="904.6717173400467" y1="51.084459893821005" x2="905.7282826599534" y2="50.51554010617899" />
</g>
<line x1="908.0" y1="56.0" x2="915.5" y2="56.0" />
</g>
<g id="atom_C_19">
<g id="chiral-bond-back" stroke="black" stroke-width="1">
  <line x1="899.6792933501167" y1="43.71114973455253" x2="902.3207066498833" y2="42.28885026544747" />
  <line x1="901.3434346800934" y1="46.168919787642025" x2="903.4565653199065" y2="45.03108021235798" />
  <line x1="903.00757601007" y1="48.626689840731515" x2="904.5924239899299" y2="47.77331015926849" />
</g>
<line x1="901.0" y1="43.0" x2="893.5" y2="43.0" />
</g>
<g id="atom_C_20">
<line x1="886.0" y1="43.0" x2="893.5" y2="43.0" />
<line x1="886.0" y1="43.0" x2="882.0" y2="37.0" />
<line x1="882.9534642052879" y1="43.29769052980812" x2="879.7534642052879" y2="38.49769052980812" />
<line x1="886.0" y1="43.0" x2="882.0" y2="49.5" />
</g>
<g id="atom_C_21">
<line x1="878.0" y1="31.0" x2="882.0" y2="37.0" />
<line x1="876.5534642052878" y1="33.69769052980811" x2="879.7534642052879" y2="38.49769052980812" />
<line x1="878.0" y1="31.0" x2="870.5" y2="31.0" />
</g>
<g id="atom_C_22">
<line x1="863.0" y1="31.0" x2="870.5" y2="31.0" />
<line x1="863.0" y1="31.0" x2="859.5" y2="37.0" />
<line x1="864.6322030324258" y1="33.56045176891503" x2="861.8322030324258" y2="38.360451768915034" />
</g>
<g id="atom_C_23">
<line x1="856.0" y1="43.0" x2="859.5" y2="37.0" />
<line x1="859.0322030324259" y1="43.16045176891504" x2="861.8322030324258" y2="38.360451768915034" />
<line x1="856.0" y1="43.0" x2="859.5" y2="49.5" />
</g>
<g id="atom_C_24">
<line x1="863.0" y1="56.0" x2="859.5" y2="49.5" />
<line x1="863.0" y1="56.0" x2="870.5" y2="56.0" />
<line x1="864.5" y1="53.3" x2="870.5" y2="53.3" />
</g>
<g id="atom_C_25">
<line x1="878.0" y1="56.0" x2="870.5" y2="56.0" />
<line x1="876.5" y1="53.3" x2="870.5" y2="53.3" />
<line x1="878.0" y1="56.0" x2="882.0" y2="49.5" />
</g>
<g id="atom_N_26">
<line x1="919.25" y1="56.0" x2="915.5" y2="56.0" />
<line x1="925.0" y1="59.25" x2="927.0" y2="62.5" />
<g id="atom_N_26_text">
<text x="923" y="56" text-anchor="middle" font-family="verdana" font-size="8"><tspan y="56" dy="0.35em">N</tspan></text>
<text x="923.0" y="49.0" text-anchor="middle" font-family="verdana" font-size="8"><tspan y="49.0" dy="0.35em">H</tspan></text>
</g>
</g>
<g id="atom_C_27">
<line x1="931.0" y1="69.0" x2="927.0" y2="62.5" />
<line x1="932.5851427427184" y1="69.0" x2="928.1497387275512" y2="76.20753152464685" />
<line x1="930.2074286286407" y1="67.71207152154126" x2="925.8502612724488" y2="74.79246847535315" />
<line x1="931.0" y1="69.0" x2="938.5" y2="69.0" />
</g>
<g id="atom_O_28">
<line x1="926.1497387275512" y1="79.45753152464685" x2="928.1497387275512" y2="76.20753152464685" />
<line x1="923.8502612724488" y1="78.04246847535315" x2="925.8502612724488" y2="74.79246847535315" />
<g id="atom_O_28_text">
<text x="923" y="82" text-anchor="middle" font-family="verdana" font-size="8"><tspan y="82" dy="0.35em">O</tspan></text>
</g>
</g>
<g id="atom_C_29">
<line x1="946.0" y1="69.0" x2="938.5" y2="69.0" />
<polygon points="946.0,69.0 950.1603533249416,62.85557486727626 948.8396466750584,62.14442513272374" />
<line x1="946.0" y1="69.0" x2="949.5" y2="75.5" />
</g>
<g id="atom_N_31">
<polygon points="952.5707066498833,59.96114973455253 949.9292933501167,58.53885026544747 948.8396466750584,62.14442513272374 950.1603533249416,62.85557486727626" />
<g id="atom_N_31_text">
<text x="953" y="56" text-anchor="middle" font-family="verdana" font-size="8"><tspan y="56" dy="0.35em">N</tspan></text>
<text x="959.0" y="56.0" text-anchor="middle" font-family="verdana" font-size="8"><tspan y="56.0" dy="0.35em">H</tspan></text>
<text x="964.0" y="59.0" text-anchor="middle" font-family="verdana" font-size="6"><tspan y="59.0" dy="0.35em">2</tspan></text>
</g>
</g>
<g id="atom_C_32">
<line x1="953.0" y1="82.0" x2="949.5" y2="75.5" />
<line x1="953.0" y1="82.0" x2="960.5" y2="82.0" />
</g>
<g id="atom_C_33">
<line x1="968.0" y1="82.0" x2="960.5" y2="82.0" />
<line x1="968.0" y1="82.0" x2="972.0" y2="88.5" />
</g>
<g id="atom_S_34">
<line x1="974.0" y1="91.75" x2="972.0" y2="88.5" />
<line x1="979.75" y1="95.0" x2="983.5" y2="95.0" />
<g id="atom_S_34_text">
<text x="976" y="95" text-anchor="middle" font-family="verdana" font-size="8"><tspan y="95" dy="0.35em">S</tspan></text>
</g>
</g>
<g id="atom_C_35">
<line x1="991.0" y1="95.0" x2="983.5" y2="95.0" />
</g>
<g id="atom_C_36">
<line x1="833.0" y1="108.0" x2="837.0" y2="101.5" />
<line x1="833.7925713713593" y1="106.71207152154126" x2="838.1497387275512" y2="113.79246847535315" />
<line x1="831.4148572572816" y1="108.0" x2="835.8502612724488" y2="115.20753152464685" />
<line x1="833.0" y1="108.0" x2="825.5" y2="108.0" />
</g>
<g id="atom_O_37">
<line x1="840.1497387275512" y1="117.04246847535315" x2="838.1497387275512" y2="113.79246847535315" />
<line x1="837.8502612724488" y1="118.45753152464685" x2="835.8502612724488" y2="115.20753152464685" />
<g id="atom_O_37_text">
<text x="841" y="121" text-anchor="middle" font-family="verdana" font-size="8"><tspan y="121" dy="0.35em">O</tspan></text>
</g>
</g>
<g id="atom_N_38">
<line x1="821.75" y1="108.0" x2="825.5" y2="108.0" />
<line x1="816.25" y1="111.25" x2="814.5" y2="114.5" />
<g id="atom_N_38_text">
<text x="818" y="108" text-anchor="middle" font-family="verdana" font-size="8"><tspan y="108" dy="0.35em">N</tspan></text>
<text x="818.0" y="101.0" text-anchor="middle" font-family="verdana" font-size="8"><tspan y="101.0" dy="0.35em">H</tspan></text>
</g>
</g>
<g id="atom_C_39">
<line x1="811.0" y1="121.0" x2="814.5" y2="114.5" />
<line x1="811.0" y1="121.0" x2="803.5" y2="121.0" />
</g>
<g id="atom_C_40">
<line x1="796.0" y1="121.0" x2="803.5" y2="121.0" />
<line x1="797.5851427427184" y1="121.0" x2="793.1497387275512" y2="113.79246847535315" />
<line x1="795.2074286286407" y1="122.28792847845874" x2="790.8502612724488" y2="115.20753152464685" />
<line x1="796.0" y1="121.0" x2="792.0" y2="127.5" />
</g>
<g id="atom_O_41">
<line x1="791.1497387275512" y1="110.54246847535315" x2="793.1497387275512" y2="113.79246847535315" />
<line x1="788.8502612724488" y1="111.95753152464685" x2="790.8502612724488" y2="115.20753152464685" />
<g id="atom_O_41_text">
<text x="788" y="108" text-anchor="middle" font-family="verdana" font-size="8"><tspan y="108" dy="0.35em">O</tspan></text>
</g>
</g>
<g id="atom_N_42">
<line x1="790.0" y1="130.75" x2="792.0" y2="127.5" />
<line x1="784.25" y1="134.0" x2="780.5" y2="134.0" />
<g id="atom_N_42_text">
<text x="788" y="134" text-anchor="middle" font-family="verdana" font-size="8"><tspan y="134" dy="0.35em">N</tspan></text>
<text x="788.0" y="141.0" text-anchor="middle" font-family="verdana" font-size="8"><tspan y="141.0" dy="0.35em">H</tspan></text>
</g>
</g>
<g id="atom_C_43">
<line x1="773.0" y1="134.0" x2="780.5" y2="134.0" />
<g id="chiral-bond-back" stroke="black" stroke-width="1">
  <line x1="773.0" y1="134.0" x2="773.0" y2="134.0" />
  <line x1="771.3358586700234" y1="131.5422299469105" x2="771.8641413299766" y2="131.2577700530895" />
  <line x1="769.6717173400467" y1="129.08445989382102" x2="770.7282826599534" y2="128.515540106179" />
</g>
<line x1="773.0" y1="134.0" x2="769.5" y2="140.5" />
</g>
<g id="atom_C_45">
<g id="chiral-bond-back" stroke="black" stroke-width="1">
  <line x1="764.6792933501167" y1="121.71114973455252" x2="767.3207066498833" y2="120.28885026544748" />
  <line x1="766.3434346800934" y1="124.16891978764201" x2="768.4565653199065" y2="123.03108021235798" />
  <line x1="768.00757601007" y1="126.62668984073152" x2="769.5924239899299" y2="125.77331015926849" />
</g>
<line x1="766.0" y1="121.0" x2="758.5" y2="121.0" />
</g>
<g id="atom_C_46">
<line x1="751.0" y1="121.0" x2="758.5" y2="121.0" />
<line x1="751.0" y1="121.0" x2="747.0" y2="114.5" />
</g>
<g id="atom_C_47">
<line x1="743.0" y1="108.0" x2="747.0" y2="114.5" />
<line x1="743.8307692307692" y1="106.65" x2="735.5" y2="106.65" />
<line x1="743.8307692307692" y1="109.35" x2="735.5" y2="109.35" />
<line x1="743.0" y1="108.0" x2="747.0" y2="101.5" />
</g>
<g id="atom_O_48">
<line x1="731.75" y1="106.65" x2="735.5" y2="106.65" />
<line x1="731.75" y1="109.35" x2="735.5" y2="109.35" />
<g id="atom_O_48_text">
<text x="728" y="108" text-anchor="middle" font-family="verdana" font-size="8"><tspan y="108" dy="0.35em">O</tspan></text>
</g>
</g>
<g id="atom_O_49">
<line x1="749.0" y1="98.25" x2="747.0" y2="101.5" />
<g id="atom_O_49_text">
<text x="751" y="95" text-anchor="middle" font-family="verdana" font-size="8"><tspan y="95" dy="0.35em">O</tspan></text>
<text x="757.0" y="95.0" text-anchor="middle" font-family="verdana" font-size="8"><tspan y="95.0" dy="0.35em">H</tspan></text>
</g>
</g>
<g id="atom_C_50">
<line x1="766.0" y1="147.0" x2="769.5" y2="140.5" />
<line x1="766.7666350435122" y1="145.57624920490608" x2="770.688635984895" y2="152.85996523890273" />
<line x1="764.4667299129757" y1="147.0" x2="768.311364015105" y2="154.14003476109727" />
<line x1="766.0" y1="147.0" x2="758.5" y2="147.0" />
</g>
<g id="atom_O_51">
<line x1="772.438635984895" y1="156.10996523890273" x2="770.688635984895" y2="152.85996523890273" />
<line x1="770.061364015105" y1="157.39003476109727" x2="768.311364015105" y2="154.14003476109727" />
<g id="atom_O_51_text">
<text x="773" y="160" text-anchor="middle" font-family="verdana" font-size="8"><tspan y="160" dy="0.35em">O</tspan></text>
</g>
</g>
<g id="atom_N_52">
<line x1="754.75" y1="147.0" x2="758.5" y2="147.0" />
<line x1="749.0" y1="150.25" x2="747.0" y2="153.5" />
<g id="atom_N_52_text">
<text x="751" y="147" text-anchor="middle" font-family="verdana" font-size="8"><tspan y="147" dy="0.35em">N</tspan></text>
<text x="751.0" y="140.0" text-anchor="middle" font-family="verdana" font-size="8"><tspan y="140.0" dy="0.35em">H</tspan></text>
</g>
</g>
<g id="atom_C_53">
<line x1="743.0" y1="160.0" x2="747.0" y2="153.5" />
<polygon points="743.0,160.0 747.6387437375284,166.10692693075174 746.3612562624716,166.89307306924826" />
<line x1="743.0" y1="160.0" x2="735.5" y2="160.0" />
</g>
<g id="atom_C_55">
<polygon points="752.2774874750568,172.2138538615035 749.7225125249432,173.7861461384965 746.3612562624716,166.89307306924826 747.6387437375284,166.10692693075174" />
<line x1="751.0" y1="173.0" x2="747.0" y2="179.5" />
</g>
<g id="atom_C_56">
<line x1="743.0" y1="186.0" x2="747.0" y2="179.5" />
<line x1="743.0" y1="186.0" x2="747.0" y2="192.5" />
</g>
<g id="atom_C_57">
<line x1="751.0" y1="199.0" x2="747.0" y2="192.5" />
<line x1="751.0" y1="199.0" x2="747.0" y2="205.5" />
</g>
<g id="atom_N_58">
<line x1="745.0" y1="208.75" x2="747.0" y2="205.5" />
<line x1="745.0" y1="215.25" x2="747.0" y2="218.5" />
<g id="atom_N_58_text">
<text x="743" y="212" text-anchor="middle" font-family="verdana" font-size="8"><tspan y="212" dy="0.35em">N</tspan></text>
<text x="737.0" y="212.0" text-anchor="middle" font-family="verdana" font-size="8"><tspan y="212.0" dy="0.35em">H</tspan></text>
</g>
</g>
<g id="atom_C_59">
<line x1="751.0" y1="225.0" x2="747.0" y2="218.5" />
<line x1="752.5851427427184" y1="225.0" x2="748.1497387275512" y2="232.20753152464684" />
<line x1="750.2074286286407" y1="223.71207152154128" x2="745.8502612724488" y2="230.79246847535316" />
<line x1="751.0" y1="225.0" x2="758.5" y2="225.0" />
</g>
<g id="atom_N_60">
<line x1="746.1497387275512" y1="235.45753152464684" x2="748.1497387275512" y2="232.20753152464684" />
<line x1="743.8502612724488" y1="234.04246847535316" x2="745.8502612724488" y2="230.79246847535316" />
<g id="atom_N_60_text">
<text x="743" y="238" text-anchor="middle" font-family="verdana" font-size="8"><tspan y="238" dy="0.35em">N</tspan></text>
<text x="737.0" y="238.0" text-anchor="middle" font-family="verdana" font-size="8"><tspan y="238.0" dy="0.35em">H</tspan></text>
</g>
</g>
<g id="atom_N_61">
<line x1="762.25" y1="225.0" x2="758.5" y2="225.0" />
<g id="atom_N_61_text">
<text x="766" y="225" text-anchor="middle" font-family="verdana" font-size="8"><tspan y="225" dy="0.35em">N</tspan></text>
<text x="772.0" y="225.0" text-anchor="middle" font-family="verdana" font-size="8"><tspan y="225.0" dy="0.35em">H</tspan></text>
<text x="777.0" y="228.0" text-anchor="middle" font-family="verdana" font-size="6"><tspan y="228.0" dy="0.35em">2</tspan></text>
</g>
</g>
<g id="atom_C_62">
<line x1="728.0" y1="160.0" x2="735.5" y2="160.0" />
<line x1="729.5332700870243" y1="160.0" x2="725.688635984895" y2="152.85996523890273" />
<line x1="727.2333649564878" y1="161.42375079509392" x2="723.311364015105" y2="154.14003476109727" />
<line x1="728.0" y1="160.0" x2="724.5" y2="166.5" />
</g>
<g id="atom_O_63">
<line x1="723.938635984895" y1="149.60996523890273" x2="725.688635984895" y2="152.85996523890273" />
<line x1="721.561364015105" y1="150.89003476109727" x2="723.311364015105" y2="154.14003476109727" />
<g id="atom_O_63_text">
<text x="721" y="147" text-anchor="middle" font-family="verdana" font-size="8"><tspan y="147" dy="0.35em">O</tspan></text>
</g>
</g>
<g id="atom_N_64">
<line x1="722.75" y1="169.75" x2="724.5" y2="166.5" />
<line x1="717.25" y1="173.0" x2="713.5" y2="173.0" />
<g id="atom_N_64_text">
<text x="721" y="173" text-anchor="middle" font-family="verdana" font-size="8"><tspan y="173" dy="0.35em">N</tspan></text>
<text x="721.0" y="180.0" text-anchor="middle" font-family="verdana" font-size="8"><tspan y="180.0" dy="0.35em">H</tspan></text>
</g>
</g>
<g id="atom_C_65">
<line x1="706.0" y1="173.0" x2="713.5" y2="173.0" />
<g id="chiral-bond-back" stroke="black" stroke-width="1">
  <line x1="706.0" y1="173.0" x2="706.0" y2="173.0" />
  <line x1="704.1445025049886" y1="170.5572292276993" x2="704.6554974950113" y2="170.2427707723007" />
  <line x1="702.2890050099772" y1="168.11445845539862" x2="703.3109949900227" y2="167.4855415446014" />
</g>
<line x1="706.0" y1="173.0" x2="702.0" y2="179.5" />
</g>
<g id="atom_C_67">
<g id="chiral-bond-back" stroke="black" stroke-width="1">
  <line x1="696.7225125249432" y1="160.7861461384965" x2="699.2774874750568" y2="159.2138538615035" />
  <line x1="698.5780100199546" y1="163.2289169107972" x2="700.6219899800454" y2="161.97108308920278" />
  <line x1="700.433507514966" y1="165.6716876830979" x2="701.9664924850341" y2="164.72831231690208" />
</g>
<line x1="698.0" y1="160.0" x2="690.5" y2="160.0" />
</g>
<g id="atom_C_68">
<line x1="683.0" y1="160.0" x2="690.5" y2="160.0" />
<line x1="683.0" y1="160.0" x2="679.5" y2="153.5" />
</g>
<g id="atom_C_69">
<line x1="676.0" y1="147.0" x2="679.5" y2="153.5" />
<line x1="676.7269230769231" y1="145.65" x2="668.5" y2="145.65" />
<line x1="676.7269230769231" y1="148.35" x2="668.5" y2="148.35" />
<line x1="676.0" y1="147.0" x2="679.5" y2="140.5" />
</g>
<g id="atom_O_70">
<line x1="664.75" y1="145.65" x2="668.5" y2="145.65" />
<line x1="664.75" y1="148.35" x2="668.5" y2="148.35" />
<g id="atom_O_70_text">
<text x="661" y="147" text-anchor="middle" font-family="verdana" font-size="8"><tspan y="147" dy="0.35em">O</tspan></text>
</g>
</g>
<g id="atom_O_71">
<line x1="681.25" y1="137.25" x2="679.5" y2="140.5" />
<g id="atom_O_71_text">
<text x="683" y="134" text-anchor="middle" font-family="verdana" font-size="8"><tspan y="134" dy="0.35em">O</tspan></text>
<text x="689.0" y="134.0" text-anchor="middle" font-family="verdana" font-size="8"><tspan y="134.0" dy="0.35em">H</tspan></text>
</g>
</g>
<g id="atom_C_72">
<line x1="698.0" y1="186.0" x2="702.0" y2="179.5" />
<line x1="698.7925713713593" y1="184.71207152154128" x2="703.1497387275512" y2="191.79246847535316" />
<line x1="696.4148572572815" y1="186.0" x2="700.8502612724488" y2="193.20753152464684" />
<line x1="698.0" y1="186.0" x2="690.5" y2="186.0" />
</g>
<g id="atom_O_73">
<line x1="705.1497387275512" y1="195.04246847535316" x2="703.1497387275512" y2="191.79246847535316" />
<line x1="702.8502612724488" y1="196.45753152464684" x2="700.8502612724488" y2="193.20753152464684" />
<g id="atom_O_73_text">
<text x="706" y="199" text-anchor="middle" font-family="verdana" font-size="8"><tspan y="199" dy="0.35em">O</tspan></text>
</g>
</g>
<g id="atom_N_74">
<line x1="686.75" y1="186.0" x2="690.5" y2="186.0" />
<line x1="681.25" y1="189.25" x2="679.5" y2="192.5" />
<g id="atom_N_74_text">
<text x="683" y="186" text-anchor="middle" font-family="verdana" font-size="8"><tspan y="186" dy="0.35em">N</tspan></text>
<text x="683.0" y="179.0" text-anchor="middle" font-family="verdana" font-size="8"><tspan y="179.0" dy="0.35em">H</tspan></text>
</g>
</g>
<g id="atom_C_75">
<line x1="676.0" y1="199.0" x2="679.5" y2="192.5" />
<line x1="676.0" y1="199.0" x2="668.5" y2="199.0" />
<polygon points="676.0,199.0 680.1603533249416,205.14442513272374 678.8396466750584,205.85557486727626" />
</g>
<g id="atom_C_77">
<line x1="661.0" y1="199.0" x2="668.5" y2="199.0" />
<line x1="662.5851427427185" y1="199.0" x2="658.1497387275512" y2="191.79246847535316" />
<line x1="660.2074286286407" y1="200.28792847845872" x2="655.8502612724488" y2="193.20753152464684" />
<line x1="661.0" y1="199.0" x2="657.0" y2="205.5" />
</g>
<g id="atom_O_78">
<line x1="656.1497387275512" y1="188.54246847535316" x2="658.1497387275512" y2="191.79246847535316" />
<line x1="653.8502612724488" y1="189.95753152464684" x2="655.8502612724488" y2="193.20753152464684" />
<g id="atom_O_78_text">
<text x="653" y="186" text-anchor="middle" font-family="verdana" font-size="8"><tspan y="186" dy="0.35em">O</tspan></text>
</g>
</g>
<g id="atom_N_79">
<line x1="655.0" y1="208.75" x2="657.0" y2="205.5" />
<line x1="649.25" y1="212.0" x2="645.5" y2="212.0" />
<g id="atom_N_79_text">
<text x="653" y="212" text-anchor="middle" font-family="verdana" font-size="8"><tspan y="212" dy="0.35em">N</tspan></text>
<text x="653.0" y="219.0" text-anchor="middle" font-family="verdana" font-size="8"><tspan y="219.0" dy="0.35em">H</tspan></text>
</g>
</g>
<g id="atom_C_80">
<line x1="638.0" y1="212.0" x2="645.5" y2="212.0" />
<g id="chiral-bond-back" stroke="black" stroke-width="1">
  <line x1="638.0" y1="212.0" x2="638.0" y2="212.0" />
  <line x1="636.3358586700234" y1="209.5422299469105" x2="636.8641413299766" y2="209.2577700530895" />
  <line x1="634.6717173400467" y1="207.08445989382102" x2="635.7282826599534" y2="206.515540106179" />
</g>
<line x1="638.0" y1="212.0" x2="634.5" y2="218.5" />
</g>
<g id="atom_C_82">
<g id="chiral-bond-back" stroke="black" stroke-width="1">
  <line x1="629.6792933501167" y1="199.71114973455252" x2="632.3207066498833" y2="198.28885026544748" />
  <line x1="631.3434346800934" y1="202.168919787642" x2="633.4565653199065" y2="201.03108021235798" />
  <line x1="633.00757601007" y1="204.6266898407315" x2="634.5924239899299" y2="203.77331015926848" />
</g>
<line x1="631.0" y1="199.0" x2="623.5" y2="199.0" />
</g>
<g id="atom_C_83">
<line x1="616.0" y1="199.0" x2="623.5" y2="199.0" />
<line x1="616.0" y1="199.0" x2="612.0" y2="192.5" />
</g>
<g id="atom_C_84">
<line x1="608.0" y1="186.0" x2="612.0" y2="192.5" />
<line x1="608.0" y1="186.0" x2="600.5" y2="186.0" />
</g>
<g id="atom_C_85">
<line x1="593.0" y1="186.0" x2="600.5" y2="186.0" />
<line x1="593.0" y1="186.0" x2="589.5" y2="179.5" />
</g>
<g id="atom_N_86">
<line x1="587.75" y1="176.25" x2="589.5" y2="179.5" />
<g id="atom_N_86_text">
<text x="586" y="173" text-anchor="middle" font-family="verdana" font-size="8"><tspan y="173" dy="0.35em">N</tspan></text>
<text x="576.0" y="173.0" text-anchor="middle" font-family="verdana" font-size="8"><tspan y="173.0" dy="0.35em">H</tspan></text>
<text x="581.0" y="176.0" text-anchor="middle" font-family="verdana" font-size="6"><tspan y="176.0" dy="0.35em">2</tspan></text>
</g>
</g>
<g id="atom_C_87">
<line x1="631.0" y1="225.0" x2="634.5" y2="218.5" />
<line x1="631.7666350435121" y1="223.57624920490608" x2="635.688635984895" y2="230.85996523890273" />
<line x1="629.4667299129757" y1="225.0" x2="633.311364015105" y2="232.14003476109727" />
<line x1="631.0" y1="225.0" x2="623.5" y2="225.0" />
</g>
<g id="atom_O_88">
<line x1="637.438635984895" y1="234.10996523890273" x2="635.688635984895" y2="230.85996523890273" />
<line x1="635.061364015105" y1="235.39003476109727" x2="633.311364015105" y2="232.14003476109727" />
<g id="atom_O_88_text">
<text x="638" y="238" text-anchor="middle" font-family="verdana" font-size="8"><tspan y="238" dy="0.35em">O</tspan></text>
</g>
</g>
<g id="atom_N_89">
<line x1="619.75" y1="225.0" x2="623.5" y2="225.0" />
<polygon points="615.2774874750568,229.0361461384965 612.7225125249432,227.4638538615035 611.3612562624716,231.10692693075174 612.6387437375284,231.89307306924826" />
<g id="atom_N_89_text">
<text x="616" y="225" text-anchor="middle" font-family="verdana" font-size="8"><tspan y="225" dy="0.35em">N</tspan></text>
<text x="616.0" y="218.0" text-anchor="middle" font-family="verdana" font-size="8"><tspan y="218.0" dy="0.35em">H</tspan></text>
</g>
</g>
<g id="atom_C_90">
<polygon points="608.0,238.0 612.6387437375284,231.89307306924826 611.3612562624716,231.10692693075174" />
<line x1="608.0" y1="238.0" x2="600.5" y2="238.0" />
<line x1="608.0" y1="238.0" x2="612.0" y2="244.5" />
</g>
<g id="atom_C_92">
<line x1="593.0" y1="238.0" x2="600.5" y2="238.0" />
<line x1="594.5332700870243" y1="238.0" x2="590.688635984895" y2="230.85996523890273" />
<line x1="592.2333649564878" y1="239.42375079509392" x2="588.311364015105" y2="232.14003476109727" />
<line x1="593.0" y1="238.0" x2="589.5" y2="244.5" />
</g>
<g id="atom_O_93">
<line x1="588.938635984895" y1="227.60996523890273" x2="590.688635984895" y2="230.85996523890273" />
<line x1="586.561364015105" y1="228.89003476109727" x2="588.311364015105" y2="232.14003476109727" />
<g id="atom_O_93_text">
<text x="586" y="225" text-anchor="middle" font-family="verdana" font-size="8"><tspan y="225" dy="0.35em">O</tspan></text>
</g>
</g>
<g id="atom_N_94">
<line x1="587.75" y1="247.75" x2="589.5" y2="244.5" />
<line x1="582.25" y1="251.0" x2="578.5" y2="251.0" />
<g id="atom_N_94_text">
<text x="586" y="251" text-anchor="middle" font-family="verdana" font-size="8"><tspan y="251" dy="0.35em">N</tspan></text>
<text x="586.0" y="258.0" text-anchor="middle" font-family="verdana" font-size="8"><tspan y="258.0" dy="0.35em">H</tspan></text>
</g>
</g>
<g id="atom_C_95">
<line x1="571.0" y1="251.0" x2="578.5" y2="251.0" />
<g id="chiral-bond-back" stroke="black" stroke-width="1">
  <line x1="571.0" y1="251.0" x2="571.0" y2="251.0" />
  <line x1="569.1445025049886" y1="248.5572292276993" x2="569.6554974950113" y2="248.2427707723007" />
  <line x1="567.2890050099772" y1="246.11445845539862" x2="568.3109949900227" y2="245.4855415446014" />
</g>
<line x1="571.0" y1="251.0" x2="567.0" y2="257.5" />
</g>
<g id="atom_C_97">
<g id="chiral-bond-back" stroke="black" stroke-width="1">
  <line x1="561.7225125249432" y1="238.7861461384965" x2="564.2774874750568" y2="237.2138538615035" />
  <line x1="563.5780100199546" y1="241.2289169107972" x2="565.6219899800454" y2="239.97108308920278" />
  <line x1="565.433507514966" y1="243.6716876830979" x2="566.9664924850341" y2="242.72831231690208" />
</g>
<line x1="563.0" y1="238.0" x2="555.5" y2="238.0" />
</g>
<g id="atom_C_98">
<line x1="548.0" y1="238.0" x2="555.5" y2="238.0" />
<line x1="548.0" y1="238.0" x2="544.5" y2="231.5" />
<line x1="548.0" y1="238.0" x2="544.5" y2="244.5" />
</g>
<g id="atom_C_99">
<line x1="541.0" y1="225.0" x2="544.5" y2="231.5" />
</g>
<g id="atom_C_100">
<line x1="541.0" y1="251.0" x2="544.5" y2="244.5" />
</g>
<g id="atom_C_101">
<line x1="563.0" y1="264.0" x2="567.0" y2="257.5" />
<line x1="563.7925713713593" y1="262.71207152154125" x2="568.1497387275512" y2="269.79246847535313" />
<line x1="561.4148572572815" y1="264.0" x2="565.8502612724488" y2="271.20753152464687" />
<line x1="563.0" y1="264.0" x2="555.5" y2="264.0" />
</g>
<g id="atom_O_102">
<line x1="570.1497387275512" y1="273.04246847535313" x2="568.1497387275512" y2="269.79246847535313" />
<line x1="567.8502612724488" y1="274.45753152464687" x2="565.8502612724488" y2="271.20753152464687" />
<g id="atom_O_102_text">
<text x="571" y="277" text-anchor="middle" font-family="verdana" font-size="8"><tspan y="277" dy="0.35em">O</tspan></text>
</g>
</g>
<g id="atom_N_103">
<line x1="551.75" y1="264.0" x2="555.5" y2="264.0" />
<line x1="546.25" y1="267.25" x2="544.5" y2="270.5" />
<g id="atom_N_103_text">
<text x="548" y="264" text-anchor="middle" font-family="verdana" font-size="8"><tspan y="264" dy="0.35em">N</tspan></text>
<text x="548.0" y="257.0" text-anchor="middle" font-family="verdana" font-size="8"><tspan y="257.0" dy="0.35em">H</tspan></text>
</g>
</g>
<g id="atom_C_104">
<line x1="541.0" y1="277.0" x2="544.5" y2="270.5" />
<polygon points="541.0,277.0 545.1603533249416,283.1444251327237 543.8396466750584,283.8555748672763" />
<line x1="541.0" y1="277.0" x2="533.5" y2="277.0" />
</g>
<g id="atom_C_106">
<polygon points="549.3207066498833,289.2888502654475 546.6792933501167,290.7111497345525 543.8396466750584,283.8555748672763 545.1603533249416,283.1444251327237" />
<line x1="548.0" y1="290.0" x2="544.5" y2="296.5" />
</g>
<g id="atom_C_107">
<line x1="541.0" y1="303.0" x2="544.5" y2="296.5" />
<line x1="541.0" y1="303.0" x2="544.5" y2="309.5" />
</g>
<g id="atom_C_108">
<line x1="548.0" y1="316.0" x2="544.5" y2="309.5" />
<line x1="549.5332700870243" y1="316.0" x2="545.688635984895" y2="323.1400347610973" />
<line x1="547.2333649564878" y1="314.57624920490605" x2="543.311364015105" y2="321.8599652389027" />
<line x1="548.0" y1="316.0" x2="555.5" y2="316.0" />
</g>
<g id="atom_O_109">
<line x1="543.938635984895" y1="326.3900347610973" x2="545.688635984895" y2="323.1400347610973" />
<line x1="541.561364015105" y1="325.1099652389027" x2="543.311364015105" y2="321.8599652389027" />
<g id="atom_O_109_text">
<text x="541" y="329" text-anchor="middle" font-family="verdana" font-size="8"><tspan y="329" dy="0.35em">O</tspan></text>
</g>
</g>
<g id="atom_O_110">
<line x1="559.25" y1="316.0" x2="555.5" y2="316.0" />
<g id="atom_O_110_text">
<text x="563" y="316" text-anchor="middle" font-family="verdana" font-size="8"><tspan y="316" dy="0.35em">O</tspan></text>
<text x="569.0" y="316.0" text-anchor="middle" font-family="verdana" font-size="8"><tspan y="316.0" dy="0.35em">H</tspan></text>
</g>
</g>
<g id="atom_C_111">
<line x1="526.0" y1="277.0" x2="533.5" y2="277.0" />
<line x1="527.5851427427185" y1="277.0" x2="523.1497387275512" y2="269.79246847535313" />
<line x1="525.2074286286407" y1="278.28792847845875" x2="520.8502612724488" y2="271.20753152464687" />
<line x1="526.0" y1="277.0" x2="522.0" y2="283.5" />
</g>
<g id="atom_O_112">
<line x1="521.1497387275512" y1="266.54246847535313" x2="523.1497387275512" y2="269.79246847535313" />
<line x1="518.8502612724488" y1="267.95753152464687" x2="520.8502612724488" y2="271.20753152464687" />
<g id="atom_O_112_text">
<text x="518" y="264" text-anchor="middle" font-family="verdana" font-size="8"><tspan y="264" dy="0.35em">O</tspan></text>
</g>
</g>
<g id="atom_N_113">
<line x1="520.0" y1="286.75" x2="522.0" y2="283.5" />
<line x1="514.25" y1="290.0" x2="510.5" y2="290.0" />
<g id="atom_N_113_text">
<text x="518" y="290" text-anchor="middle" font-family="verdana" font-size="8"><tspan y="290" dy="0.35em">N</tspan></text>
<text x="518.0" y="297.0" text-anchor="middle" font-family="verdana" font-size="8"><tspan y="297.0" dy="0.35em">H</tspan></text>
</g>
</g>
<g id="atom_C_114">
<line x1="503.0" y1="290.0" x2="510.5" y2="290.0" />
<g id="chiral-bond-back" stroke="black" stroke-width="1">
  <line x1="503.0" y1="290.0" x2="503.0" y2="290.0" />
  <line x1="501.33585867002336" y1="292.4577700530895" x2="501.8641413299767" y2="292.7422299469105" />
  <line x1="499.6717173400467" y1="294.915540106179" x2="500.72828265995327" y2="295.484459893821" />
</g>
<line x1="503.0" y1="290.0" x2="499.5" y2="283.5" />
</g>
<g id="atom_C_116">
<g id="chiral-bond-back" stroke="black" stroke-width="1">
  <line x1="494.6792933501167" y1="302.2888502654475" x2="497.3207066498833" y2="303.7111497345525" />
  <line x1="496.34343468009337" y1="299.83108021235796" x2="498.4565653199066" y2="300.968919787642" />
  <line x1="498.00757601007007" y1="297.3733101592685" x2="499.59242398992996" y2="298.2266898407315" />
</g>
<line x1="496.7666350435121" y1="301.5762492049061" x2="500.6886359848949" y2="308.8599652389027" />
<line x1="494.46672991297584" y1="303.0" x2="498.3113640151051" y2="310.1400347610973" />
<line x1="496.0" y1="303.0" x2="488.5" y2="303.0" />
</g>
<g id="atom_O_117">
<line x1="502.4386359848949" y1="312.1099652389027" x2="500.6886359848949" y2="308.8599652389027" />
<line x1="500.0613640151051" y1="313.3900347610973" x2="498.3113640151051" y2="310.1400347610973" />
<g id="atom_O_117_text">
<text x="503" y="316" text-anchor="middle" font-family="verdana" font-size="8"><tspan y="316" dy="0.35em">O</tspan></text>
</g>
</g>
<g id="atom_N_118">
<line x1="484.75" y1="303.0" x2="488.5" y2="303.0" />
<line x1="479.0" y1="306.25" x2="477.0" y2="309.5" />
<g id="atom_N_118_text">
<text x="481" y="303" text-anchor="middle" font-family="verdana" font-size="8"><tspan y="303" dy="0.35em">N</tspan></text>
<text x="481.0" y="296.0" text-anchor="middle" font-family="verdana" font-size="8"><tspan y="296.0" dy="0.35em">H</tspan></text>
</g>
</g>
<g id="atom_C_119">
<line x1="473.0" y1="316.0" x2="477.0" y2="309.5" />
<polygon points="473.0,316.0 477.6387437375284,322.10692693075174 476.3612562624716,322.89307306924826" />
<line x1="473.0" y1="316.0" x2="465.5" y2="316.0" />
</g>
<g id="atom_C_121">
<polygon points="482.27748747505683,328.2138538615035 479.72251252494317,329.7861461384965 476.3612562624716,322.89307306924826 477.6387437375284,322.10692693075174" />
<line x1="481.0" y1="329.0" x2="477.0" y2="335.5" />
</g>
<g id="atom_C_122">
<line x1="473.0" y1="342.0" x2="477.0" y2="335.5" />
<line x1="473.0" y1="342.0" x2="477.0" y2="348.5" />
<line x1="473.0" y1="342.0" x2="465.5" y2="342.0" />
</g>
<g id="atom_C_123">
<line x1="481.0" y1="355.0" x2="477.0" y2="348.5" />
</g>
<g id="atom_C_124">
<line x1="458.0" y1="342.0" x2="465.5" y2="342.0" />
</g>
<g id="atom_C_125">
<line x1="458.0" y1="316.0" x2="465.5" y2="316.0" />
<line x1="459.53327008702416" y1="316.0" x2="455.6886359848949" y2="308.8599652389027" />
<line x1="457.2333649564879" y1="317.4237507950939" x2="453.3113640151051" y2="310.1400347610973" />
<line x1="458.0" y1="316.0" x2="454.5" y2="322.5" />
</g>
<g id="atom_O_126">
<line x1="453.9386359848949" y1="305.6099652389027" x2="455.6886359848949" y2="308.8599652389027" />
<line x1="451.5613640151051" y1="306.8900347610973" x2="453.3113640151051" y2="310.1400347610973" />
<g id="atom_O_126_text">
<text x="451" y="303" text-anchor="middle" font-family="verdana" font-size="8"><tspan y="303" dy="0.35em">O</tspan></text>
</g>
</g>
<g id="atom_N_127">
<line x1="452.75" y1="325.75" x2="454.5" y2="322.5" />
<line x1="447.25" y1="329.0" x2="443.5" y2="329.0" />
<g id="atom_N_127_text">
<text x="451" y="329" text-anchor="middle" font-family="verdana" font-size="8"><tspan y="329" dy="0.35em">N</tspan></text>
<text x="451.0" y="336.0" text-anchor="middle" font-family="verdana" font-size="8"><tspan y="336.0" dy="0.35em">H</tspan></text>
</g>
</g>
<g id="atom_C_128">
<line x1="436.0" y1="329.0" x2="443.5" y2="329.0" />
<g id="chiral-bond-back" stroke="black" stroke-width="1">
  <line x1="436.0" y1="329.0" x2="436.0" y2="329.0" />
  <line x1="434.1445025049886" y1="326.5572292276993" x2="434.65549749501133" y2="326.2427707723007" />
  <line x1="432.2890050099773" y1="324.1144584553986" x2="433.3109949900227" y2="323.4855415446014" />
</g>
<line x1="436.0" y1="329.0" x2="432.0" y2="335.5" />
</g>
<g id="atom_C_130">
<g id="chiral-bond-back" stroke="black" stroke-width="1">
  <line x1="426.72251252494317" y1="316.7861461384965" x2="429.27748747505683" y2="315.2138538615035" />
  <line x1="428.57801001995455" y1="319.22891691079724" x2="430.6219899800455" y2="317.9710830892028" />
  <line x1="430.4335075149659" y1="321.6716876830979" x2="431.96649248503405" y2="320.7283123169021" />
</g>
<line x1="428.0" y1="316.0" x2="420.5" y2="316.0" />
</g>
<g id="atom_C_131">
<line x1="413.0" y1="316.0" x2="420.5" y2="316.0" />
<line x1="414.53327008702416" y1="316.0" x2="410.6886359848949" y2="308.8599652389027" />
<line x1="412.2333649564879" y1="317.4237507950939" x2="408.3113640151051" y2="310.1400347610973" />
<line x1="413.0" y1="316.0" x2="409.5" y2="322.5" />
</g>
<g id="atom_O_132">
<line x1="408.9386359848949" y1="305.6099652389027" x2="410.6886359848949" y2="308.8599652389027" />
<line x1="406.5613640151051" y1="306.8900347610973" x2="408.3113640151051" y2="310.1400347610973" />
<g id="atom_O_132_text">
<text x="406" y="303" text-anchor="middle" font-family="verdana" font-size="8"><tspan y="303" dy="0.35em">O</tspan></text>
</g>
</g>
<g id="atom_O_133">
<line x1="407.75" y1="325.75" x2="409.5" y2="322.5" />
<g id="atom_O_133_text">
<text x="406" y="329" text-anchor="middle" font-family="verdana" font-size="8"><tspan y="329" dy="0.35em">O</tspan></text>
<text x="400.0" y="329.0" text-anchor="middle" font-family="verdana" font-size="8"><tspan y="329.0" dy="0.35em">H</tspan></text>
</g>
</g>
<g id="atom_C_134">
<line x1="428.0" y1="342.0" x2="432.0" y2="335.5" />
<line x1="428.79257137135926" y1="340.71207152154125" x2="433.14973872755115" y2="347.79246847535313" />
<line x1="426.4148572572816" y1="342.0" x2="430.85026127244885" y2="349.20753152464687" />
<line x1="428.0" y1="342.0" x2="420.5" y2="342.0" />
</g>
<g id="atom_O_135">
<line x1="435.14973872755115" y1="351.04246847535313" x2="433.14973872755115" y2="347.79246847535313" />
<line x1="432.85026127244885" y1="352.45753152464687" x2="430.85026127244885" y2="349.20753152464687" />
<g id="atom_O_135_text">
<text x="436" y="355" text-anchor="middle" font-family="verdana" font-size="8"><tspan y="355" dy="0.35em">O</tspan></text>
</g>
</g>
<g id="atom_N_136">
<line x1="416.75" y1="342.0" x2="420.5" y2="342.0" />
<line x1="411.25" y1="345.25" x2="409.5" y2="348.5" />
<g id="atom_N_136_text">
<text x="413" y="342" text-anchor="middle" font-family="verdana" font-size="8"><tspan y="342" dy="0.35em">N</tspan></text>
<text x="413.0" y="335.0" text-anchor="middle" font-family="verdana" font-size="8"><tspan y="335.0" dy="0.35em">H</tspan></text>
</g>
</g>
<g id="atom_C_137">
<line x1="406.0" y1="355.0" x2="409.5" y2="348.5" />
<polygon points="406.0,355.0 410.16035332494164,361.1444251327237 408.83964667505836,361.8555748672763" />
<line x1="406.0" y1="355.0" x2="398.5" y2="355.0" />
</g>
<g id="atom_C_139">
<polygon points="414.3207066498833,367.2888502654475 411.6792933501167,368.7111497345525 408.83964667505836,361.8555748672763 410.16035332494164,361.1444251327237" />
<line x1="413.0" y1="368.0" x2="409.5" y2="374.5" />
</g>
<g id="atom_C_140">
<line x1="406.0" y1="381.0" x2="409.5" y2="374.5" />
<line x1="406.0" y1="381.0" x2="409.5" y2="387.5" />
<line x1="406.0" y1="381.0" x2="398.5" y2="381.0" />
</g>
<g id="atom_C_141">
<line x1="413.0" y1="394.0" x2="409.5" y2="387.5" />
</g>
<g id="atom_C_142">
<line x1="391.0" y1="381.0" x2="398.5" y2="381.0" />
</g>
<g id="atom_C_143">
<line x1="391.0" y1="355.0" x2="398.5" y2="355.0" />
<line x1="392.5851427427184" y1="355.0" x2="388.14973872755115" y2="347.79246847535313" />
<line x1="390.20742862864074" y1="356.28792847845875" x2="385.85026127244885" y2="349.20753152464687" />
<line x1="391.0" y1="355.0" x2="387.0" y2="361.5" />
</g>
<g id="atom_O_144">
<line x1="386.14973872755115" y1="344.54246847535313" x2="388.14973872755115" y2="347.79246847535313" />
<line x1="383.85026127244885" y1="345.95753152464687" x2="385.85026127244885" y2="349.20753152464687" />
<g id="atom_O_144_text">
<text x="383" y="342" text-anchor="middle" font-family="verdana" font-size="8"><tspan y="342" dy="0.35em">O</tspan></text>
</g>
</g>
<g id="atom_N_145">
<line x1="385.0" y1="364.75" x2="387.0" y2="361.5" />
<line x1="379.25" y1="368.0" x2="375.5" y2="368.0" />
<g id="atom_N_145_text">
<text x="383" y="368" text-anchor="middle" font-family="verdana" font-size="8"><tspan y="368" dy="0.35em">N</tspan></text>
<text x="383.0" y="375.0" text-anchor="middle" font-family="verdana" font-size="8"><tspan y="375.0" dy="0.35em">H</tspan></text>
</g>
</g>
<g id="atom_C_146">
<line x1="368.0" y1="368.0" x2="375.5" y2="368.0" />
<g id="chiral-bond-back" stroke="black" stroke-width="1">
  <line x1="368.0" y1="368.0" x2="368.0" y2="368.0" />
  <line x1="366.33585867002336" y1="370.4577700530895" x2="366.8641413299767" y2="370.7422299469105" />
  <line x1="364.6717173400467" y1="372.915540106179" x2="365.72828265995327" y2="373.484459893821" />
</g>
<line x1="368.0" y1="368.0" x2="364.5" y2="361.5" />
</g>
<g id="atom_C_148">
<g id="chiral-bond-back" stroke="black" stroke-width="1">
  <line x1="359.6792933501167" y1="380.2888502654475" x2="362.3207066498833" y2="381.7111497345525" />
  <line x1="361.34343468009337" y1="377.83108021235796" x2="363.4565653199066" y2="378.968919787642" />
  <line x1="363.00757601007007" y1="375.3733101592685" x2="364.59242398992996" y2="376.2266898407315" />
</g>
<line x1="361.7666350435121" y1="379.57624920490605" x2="365.6886359848949" y2="386.8599652389027" />
<line x1="359.46672991297584" y1="381.0" x2="363.3113640151051" y2="388.1400347610973" />
<line x1="361.0" y1="381.0" x2="353.5" y2="381.0" />
</g>
<g id="atom_O_149">
<line x1="367.4386359848949" y1="390.1099652389027" x2="365.6886359848949" y2="386.8599652389027" />
<line x1="365.0613640151051" y1="391.3900347610973" x2="363.3113640151051" y2="388.1400347610973" />
<g id="atom_O_149_text">
<text x="368" y="394" text-anchor="middle" font-family="verdana" font-size="8"><tspan y="394" dy="0.35em">O</tspan></text>
</g>
</g>
<g id="atom_N_150">
<line x1="349.75" y1="381.0" x2="353.5" y2="381.0" />
<line x1="344.0" y1="384.25" x2="342.0" y2="387.5" />
<g id="atom_N_150_text">
<text x="346" y="381" text-anchor="middle" font-family="verdana" font-size="8"><tspan y="381" dy="0.35em">N</tspan></text>
<text x="346.0" y="374.0" text-anchor="middle" font-family="verdana" font-size="8"><tspan y="374.0" dy="0.35em">H</tspan></text>
</g>
</g>
<g id="atom_C_151">
<line x1="338.0" y1="394.0" x2="342.0" y2="387.5" />
<polygon points="338.0,394.0 342.6387437375284,400.10692693075174 341.3612562624716,400.89307306924826" />
<line x1="338.0" y1="394.0" x2="330.5" y2="394.0" />
</g>
<g id="atom_C_153">
<polygon points="347.27748747505683,406.2138538615035 344.72251252494317,407.7861461384965 341.3612562624716,400.89307306924826 342.6387437375284,400.10692693075174" />
<line x1="346.0" y1="407.0" x2="342.0" y2="413.5" />
</g>
<g id="atom_C_154">
<line x1="338.0" y1="420.0" x2="342.0" y2="413.5" />
<line x1="338.0" y1="420.0" x2="342.0" y2="426.5" />
</g>
<g id="atom_C_155">
<line x1="346.0" y1="433.0" x2="342.0" y2="426.5" />
<line x1="346.0" y1="433.0" x2="342.0" y2="439.5" />
</g>
<g id="atom_N_156">
<line x1="340.0" y1="442.75" x2="342.0" y2="439.5" />
<line x1="340.0" y1="449.25" x2="342.0" y2="452.5" />
<g id="atom_N_156_text">
<text x="338" y="446" text-anchor="middle" font-family="verdana" font-size="8"><tspan y="446" dy="0.35em">N</tspan></text>
<text x="332.0" y="446.0" text-anchor="middle" font-family="verdana" font-size="8"><tspan y="446.0" dy="0.35em">H</tspan></text>
</g>
</g>
<g id="atom_C_157">
<line x1="346.0" y1="459.0" x2="342.0" y2="452.5" />
<line x1="347.58514274271846" y1="459.0" x2="343.14973872755115" y2="466.20753152464687" />
<line x1="345.20742862864074" y1="457.71207152154125" x2="340.85026127244885" y2="464.79246847535313" />
<line x1="346.0" y1="459.0" x2="353.5" y2="459.0" />
</g>
<g id="atom_N_158">
<line x1="341.14973872755115" y1="469.45753152464687" x2="343.14973872755115" y2="466.20753152464687" />
<line x1="338.85026127244885" y1="468.04246847535313" x2="340.85026127244885" y2="464.79246847535313" />
<g id="atom_N_158_text">
<text x="338" y="472" text-anchor="middle" font-family="verdana" font-size="8"><tspan y="472" dy="0.35em">N</tspan></text>
<text x="332.0" y="472.0" text-anchor="middle" font-family="verdana" font-size="8"><tspan y="472.0" dy="0.35em">H</tspan></text>
</g>
</g>
<g id="atom_N_159">
<line x1="357.25" y1="459.0" x2="353.5" y2="459.0" />
<g id="atom_N_159_text">
<text x="361" y="459" text-anchor="middle" font-family="verdana" font-size="8"><tspan y="459" dy="0.35em">N</tspan></text>
<text x="367.0" y="459.0" text-anchor="middle" font-family="verdana" font-size="8"><tspan y="459.0" dy="0.35em">H</tspan></text>
<text x="372.0" y="462.0" text-anchor="middle" font-family="verdana" font-size="6"><tspan y="462.0" dy="0.35em">2</tspan></text>
</g>
</g>
<g id="atom_C_160">
<line x1="323.0" y1="394.0" x2="330.5" y2="394.0" />
<line x1="324.5332700870242" y1="394.0" x2="320.6886359848949" y2="386.8599652389027" />
<line x1="322.2333649564879" y1="395.42375079509395" x2="318.3113640151051" y2="388.1400347610973" />
<line x1="323.0" y1="394.0" x2="319.5" y2="400.5" />
</g>
<g id="atom_O_161">
<line x1="318.9386359848949" y1="383.6099652389027" x2="320.6886359848949" y2="386.8599652389027" />
<line x1="316.5613640151051" y1="384.8900347610973" x2="318.3113640151051" y2="388.1400347610973" />
<g id="atom_O_161_text">
<text x="316" y="381" text-anchor="middle" font-family="verdana" font-size="8"><tspan y="381" dy="0.35em">O</tspan></text>
</g>
</g>
<g id="atom_N_162">
<line x1="317.75" y1="403.75" x2="319.5" y2="400.5" />
<line x1="312.25" y1="407.0" x2="308.5" y2="407.0" />
<g id="atom_N_162_text">
<text x="316" y="407" text-anchor="middle" font-family="verdana" font-size="8"><tspan y="407" dy="0.35em">N</tspan></text>
<text x="316.0" y="414.0" text-anchor="middle" font-family="verdana" font-size="8"><tspan y="414.0" dy="0.35em">H</tspan></text>
</g>
</g>
<g id="atom_C_163">
<line x1="301.0" y1="407.0" x2="308.5" y2="407.0" />
<g id="chiral-bond-back" stroke="black" stroke-width="1">
  <line x1="301.0" y1="407.0" x2="301.0" y2="407.0" />
  <line x1="299.1445025049886" y1="404.5572292276993" x2="299.65549749501133" y2="404.2427707723007" />
  <line x1="297.2890050099773" y1="402.1144584553986" x2="298.3109949900227" y2="401.4855415446014" />
</g>
<line x1="301.0" y1="407.0" x2="297.0" y2="413.5" />
</g>
<g id="atom_C_165">
<g id="chiral-bond-back" stroke="black" stroke-width="1">
  <line x1="291.72251252494317" y1="394.7861461384965" x2="294.27748747505683" y2="393.2138538615035" />
  <line x1="293.57801001995455" y1="397.22891691079724" x2="295.6219899800455" y2="395.9710830892028" />
  <line x1="295.4335075149659" y1="399.6716876830979" x2="296.96649248503405" y2="398.7283123169021" />
</g>
<line x1="293.0" y1="394.0" x2="285.5" y2="394.0" />
</g>
<g id="atom_S_166">
<line x1="281.75" y1="394.0" x2="285.5" y2="394.0" />
<g id="atom_S_166_text">
<text x="278" y="394" text-anchor="middle" font-family="verdana" font-size="8"><tspan y="394" dy="0.35em">S</tspan></text>
<text x="272.0" y="394.0" text-anchor="middle" font-family="verdana" font-size="8"><tspan y="394.0" dy="0.35em">H</tspan></text>
</g>
</g>
<g id="atom_C_167">
<line x1="293.0" y1="420.0" x2="297.0" y2="413.5" />
<line x1="293.79257137135926" y1="418.71207152154125" x2="298.14973872755115" y2="425.79246847535313" />
<line x1="291.41485725728154" y1="420.0" x2="295.85026127244885" y2="427.20753152464687" />
<line x1="293.0" y1="420.0" x2="285.5" y2="420.0" />
</g>
<g id="atom_O_168">
<line x1="300.14973872755115" y1="429.04246847535313" x2="298.14973872755115" y2="425.79246847535313" />
<line x1="297.85026127244885" y1="430.45753152464687" x2="295.85026127244885" y2="427.20753152464687" />
<g id="atom_O_168_text">
<text x="301" y="433" text-anchor="middle" font-family="verdana" font-size="8"><tspan y="433" dy="0.35em">O</tspan></text>
</g>
</g>
<g id="atom_N_169">
<line x1="281.75" y1="420.0" x2="285.5" y2="420.0" />
<line x1="276.25" y1="423.25" x2="274.5" y2="426.5" />
<g id="atom_N_169_text">
<text x="278" y="420" text-anchor="middle" font-family="verdana" font-size="8"><tspan y="420" dy="0.35em">N</tspan></text>
<text x="278.0" y="413.0" text-anchor="middle" font-family="verdana" font-size="8"><tspan y="413.0" dy="0.35em">H</tspan></text>
</g>
</g>
<g id="atom_C_170">
<line x1="271.0" y1="433.0" x2="274.5" y2="426.5" />
<polygon points="271.0,433.0 263.5,432.25 263.5,433.75" />
<line x1="271.0" y1="433.0" x2="274.5" y2="439.5" />
</g>
<g id="atom_C_172">
<polygon points="256.0,431.5 256.0,434.5 263.5,433.75 263.5,432.25" />
<line x1="257.58514274271846" y1="433.0" x2="253.14973872755115" y2="425.79246847535313" />
<line x1="255.20742862864077" y1="434.28792847845875" x2="250.85026127244888" y2="427.20753152464687" />
<line x1="256.0" y1="433.0" x2="252.0" y2="439.5" />
</g>
<g id="atom_O_173">
<line x1="251.14973872755115" y1="422.54246847535313" x2="253.14973872755115" y2="425.79246847535313" />
<line x1="248.85026127244888" y1="423.95753152464687" x2="250.85026127244888" y2="427.20753152464687" />
<g id="atom_O_173_text">
<text x="248" y="420" text-anchor="middle" font-family="verdana" font-size="8"><tspan y="420" dy="0.35em">O</tspan></text>
</g>
</g>
<g id="atom_N_174">
<line x1="250.0" y1="442.75" x2="252.0" y2="439.5" />
<line x1="244.25" y1="446.0" x2="240.5" y2="446.0" />
<g id="atom_N_174_text">
<text x="248" y="446" text-anchor="middle" font-family="verdana" font-size="8"><tspan y="446" dy="0.35em">N</tspan></text>
<text x="248.0" y="453.0" text-anchor="middle" font-family="verdana" font-size="8"><tspan y="453.0" dy="0.35em">H</tspan></text>
</g>
</g>
<g id="atom_C_175">
<line x1="233.0" y1="446.0" x2="240.5" y2="446.0" />
<g id="chiral-bond-back" stroke="black" stroke-width="1">
  <line x1="233.0" y1="446.0" x2="233.0" y2="446.0" />
  <line x1="231.33585867002336" y1="448.4577700530895" x2="231.86414132997663" y2="448.7422299469105" />
  <line x1="229.67171734004668" y1="450.915540106179" x2="230.7282826599533" y2="451.484459893821" />
</g>
<line x1="233.0" y1="446.0" x2="229.5" y2="439.5" />
</g>
<g id="atom_C_177">
<g id="chiral-bond-back" stroke="black" stroke-width="1">
  <line x1="224.67929335011675" y1="458.2888502654475" x2="227.32070664988325" y2="459.7111497345525" />
  <line x1="226.3434346800934" y1="455.83108021235796" x2="228.45656531990662" y2="456.968919787642" />
  <line x1="228.00757601007007" y1="453.3733101592685" x2="229.59242398992996" y2="454.2266898407315" />
</g>
<line x1="226.76663504351214" y1="457.57624920490605" x2="230.68863598489494" y2="464.8599652389027" />
<line x1="224.46672991297575" y1="459.0" x2="228.31136401510506" y2="466.1400347610973" />
<line x1="226.0" y1="459.0" x2="218.5" y2="459.0" />
</g>
<g id="atom_O_178">
<line x1="232.43863598489494" y1="468.1099652389027" x2="230.68863598489494" y2="464.8599652389027" />
<line x1="230.06136401510506" y1="469.3900347610973" x2="228.31136401510506" y2="466.1400347610973" />
<g id="atom_O_178_text">
<text x="233" y="472" text-anchor="middle" font-family="verdana" font-size="8"><tspan y="472" dy="0.35em">O</tspan></text>
</g>
</g>
<g id="atom_N_179">
<line x1="214.75" y1="459.0" x2="218.5" y2="459.0" />
<line x1="209.0" y1="462.25" x2="207.0" y2="465.5" />
<g id="atom_N_179_text">
<text x="211" y="459" text-anchor="middle" font-family="verdana" font-size="8"><tspan y="459" dy="0.35em">N</tspan></text>
<text x="211.0" y="452.0" text-anchor="middle" font-family="verdana" font-size="8"><tspan y="452.0" dy="0.35em">H</tspan></text>
</g>
</g>
<g id="atom_C_180">
<line x1="203.0" y1="472.0" x2="207.0" y2="465.5" />
<polygon points="203.0,472.0 207.63874373752842,478.10692693075174 206.36125626247158,478.89307306924826" />
<line x1="203.0" y1="472.0" x2="195.5" y2="472.0" />
</g>
<g id="atom_C_182">
<polygon points="212.2774874750568,484.2138538615035 209.7225125249432,485.7861461384965 206.36125626247158,478.89307306924826 207.63874373752842,478.10692693075174" />
<line x1="211.0" y1="485.0" x2="207.0" y2="491.5" />
</g>
<g id="atom_C_183">
<line x1="203.0" y1="498.0" x2="207.0" y2="491.5" />
<line x1="203.0" y1="498.0" x2="207.0" y2="504.5" />
</g>
<g id="atom_C_184">
<line x1="211.0" y1="511.0" x2="207.0" y2="504.5" />
<line x1="211.0" y1="511.0" x2="207.0" y2="517.5" />
<line x1="210.16923076923078" y1="509.65" x2="218.5" y2="509.65" />
<line x1="210.16923076923078" y1="512.35" x2="218.5" y2="512.35" />
</g>
<g id="atom_N_185">
<line x1="205.0" y1="520.75" x2="207.0" y2="517.5" />
<g id="atom_N_185_text">
<text x="203" y="524" text-anchor="middle" font-family="verdana" font-size="8"><tspan y="524" dy="0.35em">N</tspan></text>
<text x="193.0" y="524.0" text-anchor="middle" font-family="verdana" font-size="8"><tspan y="524.0" dy="0.35em">H</tspan></text>
<text x="198.0" y="527.0" text-anchor="middle" font-family="verdana" font-size="6"><tspan y="527.0" dy="0.35em">2</tspan></text>
</g>
</g>
<g id="atom_O_186">
<line x1="222.25" y1="509.65" x2="218.5" y2="509.65" />
<line x1="222.25" y1="512.35" x2="218.5" y2="512.35" />
<g id="atom_O_186_text">
<text x="226" y="511" text-anchor="middle" font-family="verdana" font-size="8"><tspan y="511" dy="0.35em">O</tspan></text>
</g>
</g>
<g id="atom_C_187">
<line x1="188.0" y1="472.0" x2="195.5" y2="472.0" />
<line x1="189.53327008702425" y1="472.0" x2="185.68863598489494" y2="464.8599652389027" />
<line x1="187.2333649564879" y1="473.42375079509395" x2="183.31136401510506" y2="466.1400347610973" />
<line x1="188.0" y1="472.0" x2="184.5" y2="478.5" />
</g>
<g id="atom_O_188">
<line x1="183.93863598489494" y1="461.6099652389027" x2="185.68863598489494" y2="464.8599652389027" />
<line x1="181.56136401510506" y1="462.8900347610973" x2="183.31136401510506" y2="466.1400347610973" />
<g id="atom_O_188_text">
<text x="181" y="459" text-anchor="middle" font-family="verdana" font-size="8"><tspan y="459" dy="0.35em">O</tspan></text>
</g>
</g>
<g id="atom_N_189">
<line x1="182.75" y1="481.75" x2="184.5" y2="478.5" />
<line x1="177.25" y1="485.0" x2="173.5" y2="485.0" />
<g id="atom_N_189_text">
<text x="181" y="485" text-anchor="middle" font-family="verdana" font-size="8"><tspan y="485" dy="0.35em">N</tspan></text>
<text x="181.0" y="492.0" text-anchor="middle" font-family="verdana" font-size="8"><tspan y="492.0" dy="0.35em">H</tspan></text>
</g>
</g>
<g id="atom_C_190">
<line x1="166.0" y1="485.0" x2="173.5" y2="485.0" />
<line x1="166.0" y1="485.0" x2="162.0" y2="491.5" />
</g>
<g id="atom_C_191">
<line x1="158.0" y1="498.0" x2="162.0" y2="491.5" />
<line x1="158.79257137135923" y1="496.71207152154125" x2="163.14973872755112" y2="503.79246847535313" />
<line x1="156.41485725728157" y1="498.0" x2="160.85026127244888" y2="505.20753152464687" />
<line x1="158.0" y1="498.0" x2="150.5" y2="498.0" />
</g>
<g id="atom_O_192">
<line x1="165.14973872755112" y1="507.04246847535313" x2="163.14973872755112" y2="503.79246847535313" />
<line x1="162.85026127244888" y1="508.45753152464687" x2="160.85026127244888" y2="505.20753152464687" />
<g id="atom_O_192_text">
<text x="166" y="511" text-anchor="middle" font-family="verdana" font-size="8"><tspan y="511" dy="0.35em">O</tspan></text>
</g>
</g>
<g id="atom_N_193">
<line x1="146.75" y1="498.0" x2="150.5" y2="498.0" />
<line x1="141.25" y1="501.25" x2="139.5" y2="504.5" />
<g id="atom_N_193_text">
<text x="143" y="498" text-anchor="middle" font-family="verdana" font-size="8"><tspan y="498" dy="0.35em">N</tspan></text>
<text x="143.0" y="491.0" text-anchor="middle" font-family="verdana" font-size="8"><tspan y="491.0" dy="0.35em">H</tspan></text>
</g>
</g>
<g id="atom_C_194">
<line x1="136.0" y1="511.0" x2="139.5" y2="504.5" />
<polygon points="136.0,511.0 140.16035332494164,517.1444251327238 138.83964667505836,517.8555748672762" />
<line x1="136.0" y1="511.0" x2="128.5" y2="511.0" />
</g>
<g id="atom_C_196">
<polygon points="144.32070664988325,523.2888502654474 141.67929335011675,524.7111497345526 138.83964667505836,517.8555748672762 140.16035332494164,517.1444251327238" />
<line x1="143.0" y1="524.0" x2="139.5" y2="530.5" />
</g>
<g id="atom_C_197">
<line x1="136.0" y1="537.0" x2="139.5" y2="530.5" />
<line x1="136.0" y1="537.0" x2="139.5" y2="543.5" />
</g>
<g id="atom_C_198">
<line x1="143.0" y1="550.0" x2="139.5" y2="543.5" />
<line x1="143.0" y1="550.0" x2="139.5" y2="556.5" />
<line x1="142.27307692307693" y1="548.65" x2="150.5" y2="548.65" />
<line x1="142.27307692307693" y1="551.35" x2="150.5" y2="551.35" />
</g>
<g id="atom_N_199">
<line x1="137.75" y1="559.75" x2="139.5" y2="556.5" />
<g id="atom_N_199_text">
<text x="136" y="563" text-anchor="middle" font-family="verdana" font-size="8"><tspan y="563" dy="0.35em">N</tspan></text>
<text x="126.0" y="563.0" text-anchor="middle" font-family="verdana" font-size="8"><tspan y="563.0" dy="0.35em">H</tspan></text>
<text x="131.0" y="566.0" text-anchor="middle" font-family="verdana" font-size="6"><tspan y="566.0" dy="0.35em">2</tspan></text>
</g>
</g>
<g id="atom_O_200">
<line x1="154.25" y1="548.65" x2="150.5" y2="548.65" />
<line x1="154.25" y1="551.35" x2="150.5" y2="551.35" />
<g id="atom_O_200_text">
<text x="158" y="550" text-anchor="middle" font-family="verdana" font-size="8"><tspan y="550" dy="0.35em">O</tspan></text>
</g>
</g>
<g id="atom_C_201">
<line x1="121.0" y1="511.0" x2="128.5" y2="511.0" />
<line x1="122.58514274271849" y1="511.0" x2="118.14973872755114" y2="503.79246847535313" />
<line x1="120.20742862864077" y1="512.2879284784588" x2="115.85026127244886" y2="505.20753152464687" />
<line x1="121.0" y1="511.0" x2="117.0" y2="517.5" />
</g>
<g id="atom_O_202">
<line x1="116.14973872755114" y1="500.54246847535313" x2="118.14973872755114" y2="503.79246847535313" />
<line x1="113.85026127244886" y1="501.95753152464687" x2="115.85026127244886" y2="505.20753152464687" />
<g id="atom_O_202_text">
<text x="113" y="498" text-anchor="middle" font-family="verdana" font-size="8"><tspan y="498" dy="0.35em">O</tspan></text>
</g>
</g>
<g id="atom_N_203">
<line x1="115.0" y1="520.75" x2="117.0" y2="517.5" />
<line x1="109.25" y1="524.0" x2="105.5" y2="524.0" />
<g id="atom_N_203_text">
<text x="113" y="524" text-anchor="middle" font-family="verdana" font-size="8"><tspan y="524" dy="0.35em">N</tspan></text>
<text x="113.0" y="531.0" text-anchor="middle" font-family="verdana" font-size="8"><tspan y="531.0" dy="0.35em">H</tspan></text>
</g>
</g>
<g id="atom_C_204">
<line x1="98.0" y1="524.0" x2="105.5" y2="524.0" />
<g id="chiral-bond-back" stroke="black" stroke-width="1">
  <line x1="98.0" y1="524.0" x2="98.0" y2="524.0" />
  <line x1="96.33585867002334" y1="521.5422299469105" x2="96.86414132997665" y2="521.2577700530894" />
  <line x1="94.6717173400467" y1="519.084459893821" x2="95.72828265995331" y2="518.515540106179" />
</g>
<line x1="98.0" y1="524.0" x2="94.5" y2="530.5" />
</g>
<g id="atom_C_206">
<g id="chiral-bond-back" stroke="black" stroke-width="1">
  <line x1="89.67929335011674" y1="511.7111497345525" x2="92.32070664988326" y2="510.2888502654475" />
  <line x1="91.3434346800934" y1="514.168919787642" x2="93.45656531990662" y2="513.031080212358" />
  <line x1="93.00757601007004" y1="516.6266898407316" x2="94.59242398992996" y2="515.7733101592685" />
</g>
<line x1="91.0" y1="511.0" x2="83.5" y2="511.0" />
</g>
<g id="atom_O_207">
<line x1="79.75" y1="511.0" x2="83.5" y2="511.0" />
<g id="atom_O_207_text">
<text x="76" y="511" text-anchor="middle" font-family="verdana" font-size="8"><tspan y="511" dy="0.35em">O</tspan></text>
<text x="70.0" y="511.0" text-anchor="middle" font-family="verdana" font-size="8"><tspan y="511.0" dy="0.35em">H</tspan></text>
</g>
</g>
<g id="atom_C_208">
<line x1="91.0" y1="537.0" x2="94.5" y2="530.5" />
<line x1="91.76663504351211" y1="535.576249204906" x2="95.68863598489493" y2="542.8599652389028" />
<line x1="89.46672991297577" y1="537.0" x2="93.31136401510507" y2="544.1400347610972" />
<line x1="91.0" y1="537.0" x2="83.5" y2="537.0" />
</g>
<g id="atom_O_209">
<line x1="97.43863598489493" y1="546.1099652389028" x2="95.68863598489493" y2="542.8599652389028" />
<line x1="95.06136401510507" y1="547.3900347610972" x2="93.31136401510507" y2="544.1400347610972" />
<g id="atom_O_209_text">
<text x="98" y="550" text-anchor="middle" font-family="verdana" font-size="8"><tspan y="550" dy="0.35em">O</tspan></text>
</g>
</g>
<g id="atom_N_210">
<line x1="79.75" y1="537.0" x2="83.5" y2="537.0" />
<line x1="74.0" y1="540.25" x2="72.0" y2="543.5" />
<g id="atom_N_210_text">
<text x="76" y="537" text-anchor="middle" font-family="verdana" font-size="8"><tspan y="537" dy="0.35em">N</tspan></text>
<text x="76.0" y="530.0" text-anchor="middle" font-family="verdana" font-size="8"><tspan y="530.0" dy="0.35em">H</tspan></text>
</g>
</g>
<g id="atom_C_211">
<line x1="68.0" y1="550.0" x2="72.0" y2="543.5" />
<line x1="68.0" y1="550.0" x2="60.5" y2="550.0" />
<g id="chiral-bond-back" stroke="black" stroke-width="1">
  <line x1="68.0" y1="550.0" x2="68.0" y2="550.0" />
  <line x1="69.34450250498863" y1="552.7572292276993" x2="69.85549749501136" y2="552.4427707723007" />
  <line x1="70.68900500997728" y1="555.5144584553987" x2="71.71099499002273" y2="554.8855415446014" />
</g>
</g>
<g id="atom_C_213">
<line x1="53.0" y1="550.0" x2="60.5" y2="550.0" />
<line x1="53.0" y1="550.0" x2="49.5" y2="556.5" />
</g>
<g id="atom_C_214">
<line x1="46.0" y1="563.0" x2="49.5" y2="556.5" />
<line x1="46.0" y1="563.0" x2="38.5" y2="563.0" />
<line x1="46.0" y1="563.0" x2="49.5" y2="569.5" />
</g>
<g id="atom_C_215">
<line x1="31.0" y1="563.0" x2="38.5" y2="563.0" />
</g>
<g id="atom_C_216">
<line x1="53.0" y1="576.0" x2="49.5" y2="569.5" />
</g>
<g id="atom_C_217">
<g id="chiral-bond-back" stroke="black" stroke-width="1">
  <line x1="74.72251252494318" y1="563.7861461384965" x2="77.27748747505682" y2="562.2138538615035" />
  <line x1="73.37801001995456" y1="561.0289169107972" x2="75.42198998004545" y2="559.7710830892028" />
  <line x1="72.0335075149659" y1="558.2716876830979" x2="73.56649248503409" y2="557.328312316902" />
</g>
<line x1="77.5851427427184" y1="563.0" x2="73.14973872755114" y2="570.2075315246468" />
<line x1="75.2074286286408" y1="561.7120715215414" x2="70.85026127244886" y2="568.7924684753532" />
<line x1="76.0" y1="563.0" x2="83.5" y2="563.0" />
</g>
<g id="atom_O_218">
<line x1="71.14973872755114" y1="573.4575315246468" x2="73.14973872755114" y2="570.2075315246468" />
<line x1="68.85026127244886" y1="572.0424684753532" x2="70.85026127244886" y2="568.7924684753532" />
<g id="atom_O_218_text">
<text x="68" y="576" text-anchor="middle" font-family="verdana" font-size="8"><tspan y="576" dy="0.35em">O</tspan></text>
</g>
</g>
<g id="atom_O_219">
<line x1="87.25" y1="563.0" x2="83.5" y2="563.0" />
<g id="atom_O_219_text">
<text x="91" y="563" text-anchor="middle" font-family="verdana" font-size="8"><tspan y="563" dy="0.35em">O</tspan></text>
<text x="97.0" y="563.0" text-anchor="middle" font-family="verdana" font-size="8"><tspan y="563.0" dy="0.35em">H</tspan></text>
</g>
</g>
<g id="atom_C_220">
<line x1="226.0" y1="433.0" x2="229.5" y2="439.5" />
<polygon points="226.0,433.0 218.5,432.25 218.5,433.75" />
<line x1="226.0" y1="433.0" x2="229.5" y2="426.5" />
</g>
<g id="atom_C_222">
<polygon points="211.0,431.5 211.0,434.5 218.5,433.75 218.5,432.25" />
</g>
<g id="atom_O_223">
<line x1="231.25" y1="423.25" x2="229.5" y2="426.5" />
<g id="atom_O_223_text">
<text x="233" y="420" text-anchor="middle" font-family="verdana" font-size="8"><tspan y="420" dy="0.35em">O</tspan></text>
<text x="239.0" y="420.0" text-anchor="middle" font-family="verdana" font-size="8"><tspan y="420.0" dy="0.35em">H</tspan></text>
</g>
</g>
<g id="atom_C_224">
<line x1="278.0" y1="446.0" x2="274.5" y2="439.5" />
<g id="chiral-bond-back" stroke="black" stroke-width="1">
  <line x1="278.0" y1="446.0" x2="278.0" y2="446.0" />
  <line x1="276.33585867002336" y1="448.4577700530895" x2="276.8641413299767" y2="448.7422299469105" />
  <line x1="274.6717173400467" y1="450.915540106179" x2="275.72828265995327" y2="451.484459893821" />
</g>
<line x1="278.0" y1="446.0" x2="285.5" y2="446.0" />
</g>
<g id="atom_C_226">
<g id="chiral-bond-back" stroke="black" stroke-width="1">
  <line x1="269.6792933501167" y1="458.2888502654475" x2="272.3207066498833" y2="459.7111497345525" />
  <line x1="271.34343468009337" y1="455.83108021235796" x2="273.4565653199066" y2="456.968919787642" />
  <line x1="273.00757601007007" y1="453.3733101592685" x2="274.59242398992996" y2="454.2266898407315" />
</g>
</g>
<g id="atom_O_227">
<line x1="289.25" y1="446.0" x2="285.5" y2="446.0" />
<g id="atom_O_227_text">
<text x="293" y="446" text-anchor="middle" font-family="verdana" font-size="8"><tspan y="446" dy="0.35em">O</tspan></text>
<text x="299.0" y="446.0" text-anchor="middle" font-family="verdana" font-size="8"><tspan y="446.0" dy="0.35em">H</tspan></text>
</g>
</g>
<g id="atom_C_228">
<line x1="361.0" y1="355.0" x2="364.5" y2="361.5" />
<g id="chiral-bond-back" stroke="black" stroke-width="1">
  <line x1="361.0" y1="355.0" x2="361.0" y2="355.0" />
  <line x1="362.1358586700233" y1="352.2577700530895" x2="362.66414132997664" y2="352.5422299469105" />
  <line x1="363.27171734004673" y1="349.515540106179" x2="364.3282826599533" y2="350.084459893821" />
</g>
<line x1="361.0" y1="355.0" x2="353.5" y2="355.0" />
</g>
<g id="atom_C_230">
<g id="chiral-bond-back" stroke="black" stroke-width="1">
  <line x1="366.6792933501167" y1="341.2888502654475" x2="369.3207066498833" y2="342.7111497345525" />
  <line x1="365.5434346800934" y1="344.031080212358" x2="367.65656531990663" y2="345.16891978764204" />
  <line x1="364.40757601007004" y1="346.7733101592685" x2="365.99242398992993" y2="347.6266898407315" />
</g>
</g>
<g id="atom_C_231">
<line x1="346.0" y1="355.0" x2="353.5" y2="355.0" />
<line x1="346.0" y1="355.0" x2="342.0" y2="348.5" />
</g>
<g id="atom_C_232">
<line x1="338.0" y1="342.0" x2="342.0" y2="348.5" />
</g>
<g id="atom_C_233">
<line x1="496.0" y1="277.0" x2="499.5" y2="283.5" />
<g id="chiral-bond-back" stroke="black" stroke-width="1">
  <line x1="496.0" y1="277.0" x2="496.0" y2="277.0" />
  <line x1="497.1358586700233" y1="274.2577700530895" x2="497.66414132997664" y2="274.5422299469105" />
  <line x1="498.27171734004673" y1="271.515540106179" x2="499.3282826599533" y2="272.084459893821" />
</g>
<line x1="496.0" y1="277.0" x2="488.5" y2="277.0" />
</g>
<g id="atom_C_235">
<g id="chiral-bond-back" stroke="black" stroke-width="1">
  <line x1="501.6792933501167" y1="263.2888502654475" x2="504.3207066498833" y2="264.7111497345525" />
  <line x1="500.5434346800934" y1="266.031080212358" x2="502.65656531990663" y2="267.16891978764204" />
  <line x1="499.40757601007004" y1="268.7733101592685" x2="500.99242398992993" y2="269.6266898407315" />
</g>
</g>
<g id="atom_C_236">
<line x1="481.0" y1="277.0" x2="488.5" y2="277.0" />
<line x1="481.0" y1="277.0" x2="477.0" y2="270.5" />
</g>
<g id="atom_C_237">
<line x1="473.0" y1="264.0" x2="477.0" y2="270.5" />
</g>
<g id="atom_C_238">
<line x1="616.0" y1="251.0" x2="612.0" y2="244.5" />
<polygon points="616.0,251.0 623.5,250.25 623.5,251.75" />
<line x1="616.0" y1="251.0" x2="612.0" y2="257.5" />
</g>
<g id="atom_C_240">
<polygon points="631.0,249.5 631.0,252.5 623.5,251.75 623.5,250.25" />
</g>
<g id="atom_C_241">
<line x1="608.0" y1="264.0" x2="612.0" y2="257.5" />
<line x1="608.0" y1="264.0" x2="612.0" y2="270.5" />
</g>
<g id="atom_C_242">
<line x1="616.0" y1="277.0" x2="612.0" y2="270.5" />
</g>
<g id="atom_C_243">
<polygon points="684.3207066498833,211.28885026544748 681.6792933501167,212.71114973455252 678.8396466750584,205.85557486727626 680.1603533249416,205.14442513272374" />
<line x1="683.0" y1="212.0" x2="679.5" y2="218.5" />
<line x1="683.0" y1="212.0" x2="690.5" y2="212.0" />
</g>
<g id="atom_C_244">
<line x1="676.0" y1="225.0" x2="679.5" y2="218.5" />
</g>
<g id="atom_C_245">
<line x1="698.0" y1="212.0" x2="690.5" y2="212.0" />
</g>
</g>
</svg>